<?xml version="1.0" encoding="iso-8859-1"?>
<svg width="211" height="25" viewBox="0 0 211 25" fill="none" xmlns="http://www.w3.org/2000/svg">
    <path d="M64.4468 13.9303H50.6624V9.9314H67.3202V4.40967H42.6777V24.9737H50.6624V19.4521H64.4468V13.9303Z" fill="#FF267E"/>
    <path d="M108.223 18.1014L100.914 4.40967H91.751L103.615 24.9737H112.712L124.577 4.40967H115.533L108.223 18.1014Z" fill="#FF267E"/>
    <path d="M150.172 14.5653C151.062 14.2139 151.829 13.606 152.373 12.8186C152.918 12.0312 153.216 11.0999 153.231 10.1426C153.231 6.76602 150.384 4.44873 144.783 4.44873H126.734V24.9996H145.193C151.205 24.9996 153.879 22.6161 153.879 19.1866C153.879 17.2136 152.714 15.4922 150.172 14.5653ZM134.507 9.37458H143.432C143.648 9.35459 143.866 9.37999 144.073 9.44909C144.279 9.5182 144.468 9.62951 144.628 9.77593C144.789 9.92235 144.917 10.1006 145.005 10.2994C145.093 10.4982 145.138 10.7132 145.138 10.9305C145.138 11.1478 145.093 11.3627 145.005 11.5615C144.917 11.7603 144.789 11.9386 144.628 12.085C144.468 12.2315 144.279 12.3428 144.073 12.4119C143.866 12.481 143.648 12.5063 143.432 12.4863H134.507V9.37458ZM144.068 20.0605H134.507V16.9487H144.081C144.306 16.9126 144.536 16.9259 144.756 16.9874C144.975 17.049 145.179 17.1575 145.352 17.3055C145.526 17.4534 145.665 17.6372 145.761 17.8443C145.856 18.0513 145.906 18.2766 145.906 18.5046C145.906 18.7327 145.856 18.9579 145.761 19.165C145.665 19.372 145.526 19.5559 145.352 19.7038C145.179 19.8517 144.975 19.9602 144.756 20.0218C144.536 20.0834 144.306 20.0966 144.081 20.0605H144.068Z" fill="#FF267E"/>
    <path d="M165.665 16.9229H179.41V12.4605H165.665V9.9314H180.866V4.40967H157.667V24.9737H181.224V19.4521H165.665V16.9229Z" fill="#FF267E"/>
    <path d="M184.521 4.40967V9.9314H193.485V24.9737H201.562V9.9314H210.527V4.40967H184.521Z" fill="#FF267E"/>
    <path d="M76.6146 4.42236L64.6973 24.9732H73.1851L74.7873 21.9409H87.4727L89.0749 24.9732H97.907L85.9896 4.42236H76.6146ZM77.674 16.6046L81.183 9.98382L84.692 16.6046H77.674Z" fill="#FF267E"/>
    <path d="M0 12.4736L7.08422 24.9736H16.1811L9.08368 12.4736H0Z" fill="#FF267E"/>
    <path d="M23.2659 12.4736L16.1816 24.9736H25.2653L32.3495 12.4736H23.2659Z" fill="#FF267E"/>
    <path d="M16.1805 0L9.08301 12.4735H23.2647L16.1805 0Z" fill="#FF267E"/>
</svg>
