<?xml version="1.0" encoding="iso-8859-1"?>
<svg width="254" height="99" viewBox="0 0 254 99" fill="none" xmlns="http://www.w3.org/2000/svg"><path d="M69.0491 9.23767C69.0491 13.7615 65.2395 17.5709 60.7157 17.5709C56.1919 17.5709 52.3824 13.7615 52.3824 9.23767C52.3824 4.71387 56.1919 0.904297 60.7157 0.904297C65.4776 0.904297 69.0491 4.71387 69.0491 9.23767Z" fill="#FF2400"/><path d="M52.3824 24.2377C52.3824 22.3329 54.0491 20.6663 55.9538 20.6663H65.4776C67.3824 20.6663 69.0491 22.3329 69.0491 24.2377V62.8091H52.6205L52.3824 24.2377Z" fill="#FF2400"/><path d="M124.049 27.8091C124.049 25.9043 125.716 24.2377 127.621 24.2377H148.573C150.478 24.2377 152.144 25.9043 152.144 27.8091V35.1901C152.144 37.0948 150.478 38.7615 148.573 38.7615H127.621C125.716 38.7615 124.049 37.0948 124.049 35.1901V27.8091Z" fill="#FF2400"/><path d="M119.525 23.5233C119.525 10.9043 109.049 0.904297 96.43 0.904297C83.811 0.904297 73.5729 10.9043 73.3348 23.2853V62.8091H90.4777V23.7615C90.4777 20.1901 93.3348 17.3329 96.6681 17.3329C100.24 17.3329 102.859 20.1901 102.859 23.7615V62.8091H119.287V61.3805L119.525 23.5233Z" fill="#FF2400"/><path d="M18.3348 62.809H1.90625V25.9043C1.90625 18.9995 3.57294 13.5233 7.14435 9.23755C9.28717 6.61853 11.9062 4.71375 15.0015 3.28516C18.3348 1.85657 21.4301 1.14233 24.7634 1.14233C31.4301 1.14233 36.9062 3.28516 41.4301 7.80896C45.9539 12.3328 48.0967 17.809 48.0967 24.2375C48.0967 30.6661 45.9539 36.1423 41.4301 40.6661C36.9062 45.1899 31.6682 47.5709 25.4777 47.5709C24.5253 47.5709 23.0967 47.5709 21.4301 47.3328V29.2375C22.6205 29.9519 23.811 30.4281 25.0015 30.4281C26.6682 30.4281 28.0967 29.7137 29.2872 28.5233C30.4777 27.3328 31.192 25.6661 31.192 23.9995C31.192 22.0947 30.4777 20.6661 29.2872 19.4757C28.0967 18.2852 26.6682 17.5709 24.7634 17.5709C20.4777 17.5709 18.3348 20.4281 18.3348 26.3804V62.809Z" fill="#FF2400"/><path d="M207.383 62.809H224.049V26.3804C224.049 20.4281 226.192 17.5709 230.478 17.5709C232.383 17.5709 233.811 18.2852 235.002 19.4757C236.192 20.6661 236.906 22.0947 236.906 23.9995C236.906 25.6661 236.192 27.3328 235.002 28.5233C233.811 29.7137 232.383 30.4281 230.716 30.4281C229.525 30.4281 228.335 29.9519 227.144 29.2375V47.3328C228.811 47.5709 230.24 47.5709 231.192 47.5709C237.383 47.5709 242.621 45.1899 247.144 40.6661C251.668 36.1423 253.811 30.6661 253.811 24.2375C253.811 17.809 251.668 12.3328 247.144 7.80896C242.621 3.28516 237.144 1.14233 230.478 1.14233C227.144 1.14233 224.049 1.85657 220.716 3.28516C217.621 4.71375 215.002 6.61853 212.859 9.23755C209.287 13.5233 207.621 18.9995 207.621 25.9043L207.383 62.809Z" fill="#FF2400"/><path d="M156.668 40.4281V3.04712L156.906 2.33289H174.049V39.9519C174.049 43.5233 176.668 46.3805 180.24 46.3805C183.573 46.3805 186.43 43.5233 186.43 39.9519V2.33289H202.859V40.1901C202.859 52.8091 192.382 62.8091 179.763 62.8091C167.144 62.8091 156.906 52.8091 156.668 40.4281Z" fill="#FF2400"/><path d="M90.5522 80.0832L87.9132 86.6952H93.1622L90.5522 80.0832Z" fill="#00CFA6"/><path d="M185.116 84.3172C185.116 88.0002 187.523 90.8422 191.119 90.8422C194.744 90.8422 197.151 88.0002 197.151 84.3172C197.151 80.6342 194.744 77.7922 191.119 77.7922C187.523 77.7922 185.116 80.6342 185.116 84.3172Z" fill="#00CFA6"/><path fill-rule="evenodd" clip-rule="evenodd" d="M254 69.8086H0.90625V84.8086C0.90625 92.5406 7.17427 98.8086 14.9063 98.8086H240C247.732 98.8086 254 92.5406 254 84.8086V69.8086ZM71.5236 89.7692C69.8996 92.5242 67.2026 94.0612 63.7806 94.0612C57.8646 94.0612 54.1816 89.8852 54.1816 84.3462C54.1816 78.9232 58.1256 74.5732 63.7806 74.5732C67.0286 74.5732 69.7256 75.9072 71.4946 78.6622L68.7686 80.4602C67.6086 78.6912 65.9556 77.7632 63.8096 77.7632C60.0976 77.7632 57.7196 80.6922 57.7196 84.3462C57.7196 88.0002 60.1266 90.8712 63.8096 90.8712C66.1296 90.8712 67.7536 89.7692 68.8266 88.0582L71.5236 89.7692ZM99.6292 93.7132H95.9752L94.3512 89.6532H86.7242L85.1002 93.7132H81.5042L89.7402 74.6602H91.3062L99.6292 93.7132ZM116.393 94.0612C120.395 94.0612 122.947 91.8572 122.947 88.4062C122.947 85.2452 121.381 83.4762 117.785 82.4902C114.566 81.6202 113.754 81.0112 113.725 79.6482C113.696 78.4592 114.682 77.7052 116.248 77.7052C117.872 77.7052 118.829 78.3722 119.206 79.7352L122.28 78.4592C121.41 75.8782 119.438 74.6022 116.393 74.6022C112.594 74.6022 110.303 76.7192 110.303 79.8512C110.303 82.9252 112.014 84.6362 115.697 85.5642C118.713 86.3182 119.496 87.1012 119.496 88.5222C119.496 90.0302 118.365 90.9582 116.567 90.9582C114.595 90.9582 113.522 90.2042 112.884 88.2032L109.781 89.3632C110.622 92.5242 112.768 94.0612 116.393 94.0612ZM139.283 93.7132H135.716V74.9792H139.283V93.7132ZM165.359 74.9792V86.7822L154.861 74.8052H153.266V93.7132H156.688V81.8522L167.186 93.8582H168.752V74.9792H165.359ZM200.718 84.3172C200.718 89.7982 196.716 94.0612 191.119 94.0612C185.261 94.0612 181.549 89.7982 181.549 84.3172C181.549 78.8652 185.551 74.5732 191.119 74.5732C197.035 74.5732 200.718 78.8652 200.718 84.3172Z" fill="#00CFA6"/></svg>