<svg width="324" height="56" viewBox="0 0 324 56" fill="none" xmlns="http://www.w3.org/2000/svg">
<g clip-path="url(#clip0_9609_50424)">
<g clip-path="url(#clip1_9609_50424)">
<path d="M9.22572 3.95751L1.45278 11.7676L6.94065 39.1104L14.7062 31.3449L9.22572 3.95751ZM70.3429 39.1104L75.8307 11.7676L68.0578 3.95751L62.5811 31.3449L70.3429 39.1104ZM61.4776 32.1363H15.806L8.22995 39.7123H69.0573L61.4776 32.1363ZM5.9486 41.0499H5.94489L0 11.3292L8.91733 2.41927H10.4407L23.7795 17.2741L38.6418 2.41184L53.504 17.2741L66.984 2.31152L68.3662 2.41184L77.2835 11.3292L71.3386 41.0499V41.0536L71.3349 41.0499H5.9486V41.0499Z" fill="#FFE600"/>
<path d="M251.171 41.0537V11.3292H260.089V41.0537H251.171ZM115.925 41.0537V1H124.843V41.0537H115.925ZM272.647 41.0537H263.73V11.3292H272.201V14.7475C272.276 14.6732 272.313 14.6175 272.343 14.5692C273.736 12.2693 275.824 10.9948 278.425 10.5415C280.914 10.1068 283.382 10.17 285.741 11.188C289.13 12.6483 290.887 15.2975 291.259 18.9201C291.303 19.3437 291.296 19.7747 291.299 20.2057C291.299 24.7089 291.303 31.657 291.299 41.0537H282.382C282.393 32.82 282.393 26.7451 282.382 22.8214C282.378 21.9854 282.323 21.1346 282.163 20.3134C281.854 18.7343 280.851 17.7757 279.25 17.6234C278.224 17.5231 277.21 17.5045 276.203 17.6828C274.16 18.0432 272.959 19.5258 272.729 21.7477C272.67 22.3013 272.651 22.8586 272.651 23.4159C272.644 27.2021 272.644 33.0838 272.647 41.0537ZM176.86 21.7328H185.781C185.8 21.8517 185.781 27.8263 185.781 30.8582C185.703 33.4665 184.659 35.8965 182.976 37.9586C181.382 39.913 179.283 41.0425 176.842 41.5218C173.345 42.2055 169.559 42.094 166.286 40.5298C163.603 39.2479 161.954 37.0632 161.118 34.2431C160.668 32.7234 160.512 31.1666 160.512 29.5875C160.516 23.7986 160.516 14.2682 160.512 1H169.429V11.3292H185.781V17.2741H169.429C169.403 22.736 169.403 26.7302 169.429 29.2531C169.437 30.1411 169.544 31.0551 169.782 31.9097C170.172 33.3067 171.254 34.0387 172.684 34.1687C173.204 34.217 173.364 34.217 173.881 34.1353C175.37 33.9012 176.288 32.9909 176.619 31.5456C176.782 30.8285 176.853 30.0779 176.86 29.3422C176.879 27.6963 176.879 25.1585 176.86 21.7328ZM221.447 1H230.413L230.364 20.6107C234.541 15.9179 237.227 12.8229 238.423 11.3292C238.457 11.2884 242.091 11.2884 249.329 11.3292L239.412 21.7737C243.774 30.3975 247.006 36.8291 249.113 41.0722H239.181C237.896 38.2521 235.93 34.0127 233.281 28.3576L230.364 31.4787V41.0537H221.447V1ZM315.083 11.3292H323.996C324.004 11.4779 323.996 31.3932 323.996 41.2877C323.996 43.9407 323.532 46.4895 322.179 48.8155C320.433 51.8176 317.765 53.642 314.477 54.5411C310.397 55.6558 306.087 55.6521 302.078 54.2365C297.631 52.6685 294.896 49.5734 294.134 44.851C294.049 44.3308 294.038 43.7995 293.997 43.2719C293.986 43.1195 293.975 42.722 293.975 42.5362H302.149C302.149 42.9114 302.186 43.4799 302.249 43.8106C302.535 45.2745 303.36 46.3632 304.72 46.9391C307.146 47.9683 309.773 47.998 312.185 46.9094C313.875 46.1477 314.871 44.7506 315.012 42.9077C315.079 42.0309 315.079 41.1391 315.079 40.2325C315.079 39.5154 315.083 38.7797 315.083 38.0775C315.09 38.0738 314.994 38.1518 314.979 38.1741C313.961 39.7049 312.46 40.5335 310.732 40.9236C308.175 41.5032 305.526 41.533 303.141 40.8419C302.045 40.5261 300.975 40.0542 299.927 39.4188C297.672 38.0404 296.167 35.9968 295.294 33.5408C293.506 28.5062 293.406 23.4271 295.383 18.4259C296.958 14.4466 299.782 11.7379 304.025 10.6902C305.824 10.248 307.644 10.196 309.461 10.575C311.549 11.0097 313.217 12.1132 314.488 13.8224C314.648 14.0379 314.997 14.4763 315.079 14.4875V11.3292H315.083ZM303.784 30.2934C304.341 31.932 305.259 33.2956 306.916 34.0015C309.342 35.0382 313.139 34.5737 314.548 30.4309C315.569 27.4287 315.428 24.3783 314.395 21.3984C313.686 19.3474 312.199 18.1659 310.015 17.876C306.938 17.471 304.675 18.8941 303.784 21.7588C303.349 23.1596 303.212 24.6086 303.193 26.4255C303.193 27.5105 303.319 28.9298 303.784 30.2934ZM203.612 10.3C205.782 10.274 207.934 10.6381 210.051 11.437C214.492 13.1127 217.208 16.3861 218.478 20.9042C218.958 22.6059 219.136 24.3523 219.155 26.184C219.114 29.2011 218.564 32.1623 216.996 34.8673C215.038 38.2484 212.117 40.3663 208.357 41.3175C206.771 41.7188 205.188 41.9231 203.612 41.9231C202.037 41.9231 200.454 41.715 198.868 41.3175C195.104 40.37 192.183 38.2484 190.229 34.8673C188.661 32.1586 188.111 29.1973 188.07 26.184C188.089 24.3485 188.267 22.6059 188.746 20.9042C190.017 16.3824 192.733 13.1127 197.173 11.437C199.291 10.6344 201.442 10.274 203.612 10.3ZM203.612 17.8277C202.947 17.8203 202.319 17.9095 201.573 18.1138C199.38 18.7195 198.21 20.2949 197.716 22.4016C197.092 25.0731 197.084 27.7594 197.879 30.4012C198.563 32.6714 199.882 34.0647 202.271 34.4065C202.732 34.4734 203.174 34.5143 203.612 34.518C204.051 34.5106 204.493 34.4734 204.954 34.4065C207.339 34.0647 208.662 32.6714 209.345 30.4012C210.141 27.7594 210.137 25.0694 209.509 22.4016C209.015 20.2949 207.844 18.7195 205.652 18.1138C204.905 17.9095 204.277 17.824 203.612 17.8277ZM143.015 10.3C145.185 10.274 147.337 10.6381 149.454 11.437C153.895 13.1127 156.611 16.3861 157.881 20.9042C158.361 22.6059 158.539 24.3523 158.558 26.184C158.517 29.2011 157.967 32.1623 156.399 34.8673C154.441 38.2484 151.52 40.3663 147.76 41.3175C146.174 41.7188 144.591 41.9231 143.015 41.9231C141.44 41.9231 139.857 41.715 138.271 41.3175C134.507 40.37 131.586 38.2484 129.632 34.8673C128.064 32.1586 127.514 29.1973 127.473 26.184C127.492 24.3485 127.67 22.6059 128.149 20.9042C129.42 16.3824 132.136 13.1127 136.576 11.437C138.69 10.6344 140.846 10.274 143.015 10.3ZM143.015 17.8277C142.35 17.8203 141.722 17.9095 140.976 18.1138C138.783 18.7195 137.613 20.2949 137.119 22.4016C136.495 25.0731 136.487 27.7594 137.282 30.4012C137.966 32.6714 139.285 34.0647 141.674 34.4065C142.135 34.4734 142.577 34.5143 143.015 34.518C143.454 34.5106 143.896 34.4734 144.357 34.4065C146.742 34.0647 148.065 32.6714 148.749 30.4012C149.544 27.7594 149.54 25.0694 148.912 22.4016C148.418 20.2949 147.247 18.7195 145.055 18.1138C144.308 17.9095 143.68 17.824 143.015 17.8277ZM112.879 20.3209H104.63C104.626 20.2317 104.615 20.0608 104.597 19.953C104.255 17.8575 103.285 16.8394 101.208 16.4939C99.8704 16.2709 98.5254 16.2932 97.2361 16.7688C96.8162 16.9249 96.4001 17.1627 96.0694 17.4599C95.1999 18.2402 95.1814 19.7821 96.088 20.5067C96.675 20.9748 97.381 21.1532 98.1018 21.3687C100.082 21.9594 102.1 22.6505 104.095 23.1856C106.098 23.7206 108.071 24.33 109.895 25.3443C112.381 26.7302 113.618 28.7329 113.759 31.5418C113.845 33.2882 113.637 34.9193 112.856 36.5133C111.872 38.5234 110.252 39.835 108.219 40.6858C105.886 41.6593 103.426 41.9305 100.926 41.9603C98.1092 41.9937 95.3337 41.7039 92.6845 40.6747C89.8979 39.5897 87.7131 37.8397 86.5873 34.975C86.238 34.0907 86.0374 33.1767 85.9668 32.2107C85.9668 32.2107 95.003 32.1995 95.003 32.2107C95.2074 33.3773 95.8539 34.2505 96.8905 34.7781C99.027 35.8556 101.256 35.9188 103.497 35.1422C104.47 34.8041 105.165 33.8455 105.169 33.0912C105.254 32.0137 104.589 31.4638 104.058 31.252C102.98 30.8173 101.866 30.442 100.744 30.1374C98.2653 29.4649 95.7461 28.9447 93.3645 27.9526C91.581 27.2058 89.9536 26.2212 88.7275 24.6792C87.2524 22.8252 86.8177 20.4621 87.0926 18.1659C87.5385 14.4577 89.8793 12.403 93.2493 11.3069C95.486 10.5787 97.8045 10.4078 100.142 10.4189C102.222 10.4301 104.277 10.6159 106.272 11.2363C110.188 12.4551 112.288 15.1748 112.808 19.1913C112.841 19.418 112.864 19.7933 112.879 20.3209Z" fill="#FFE600"/>
</g>
</g>
<defs>
<clipPath id="clip0_9609_50424">
<rect width="324" height="56" fill="white"/>
</clipPath>
<clipPath id="clip1_9609_50424">
<rect width="324" height="54.34" fill="white" transform="translate(0 1)"/>
</clipPath>
</defs>
</svg>
