<svg id="Layer_1" data-name="Layer 1" xmlns="http://www.w3.org/2000/svg" viewBox="0 0 237 74.31"><defs><linearGradient id="linear-gradient" x1="118.5" y1="8.3" x2="118.5" y2="67.73" gradientTransform="matrix(1 0 0 -1 0 76.41)" gradientUnits="userSpaceOnUse"><stop offset="0" stop-color="#cea23f"/><stop offset="1" stop-color="#fcc000"/></linearGradient><linearGradient id="linear-gradient-2" x1="191.66" y1="8.3" x2="191.66" y2="67.73" gradientTransform="matrix(1 0 0 -1 0 76.41)" gradientUnits="userSpaceOnUse"><stop offset="0" stop-color="#cea23f"/><stop offset="1" stop-color="#fcc000"/></linearGradient><linearGradient id="linear-gradient-3" x1="99.02" y1="8.3" x2="99.02" y2="67.73" gradientTransform="matrix(1 0 0 -1 0 76.41)" gradientUnits="userSpaceOnUse"><stop offset="0" stop-color="#cea23f"/><stop offset="1" stop-color="#fcc000"/></linearGradient><linearGradient id="linear-gradient-4" x1="191.98" y1="8.3" x2="191.98" y2="67.73" gradientTransform="matrix(1 0 0 -1 0 76.41)" gradientUnits="userSpaceOnUse"><stop offset="0" stop-color="#cea23f"/><stop offset="1" stop-color="#fcc000"/></linearGradient><linearGradient id="linear-gradient-5" x1="151.37" y1="8.3" x2="151.37" y2="67.73" gradientTransform="matrix(1 0 0 -1 0 76.41)" gradientUnits="userSpaceOnUse"><stop offset="0" stop-color="#cea23f"/><stop offset="1" stop-color="#fcc000"/></linearGradient><linearGradient id="linear-gradient-6" x1="137.06" y1="8.3" x2="137.06" y2="67.73" gradientTransform="matrix(1 0 0 -1 0 76.41)" gradientUnits="userSpaceOnUse"><stop offset="0" stop-color="#cea23f"/><stop offset="1" stop-color="#fcc000"/></linearGradient><linearGradient id="linear-gradient-7" x1="122.74" y1="8.3" x2="122.74" y2="67.73" gradientTransform="matrix(1 0 0 -1 0 76.41)" gradientUnits="userSpaceOnUse"><stop offset="0" stop-color="#cea23f"/><stop offset="1" stop-color="#fcc000"/></linearGradient><linearGradient id="linear-gradient-8" x1="108.42" y1="8.3" x2="108.42" y2="67.73" gradientTransform="matrix(1 0 0 -1 0 76.41)" gradientUnits="userSpaceOnUse"><stop offset="0" stop-color="#cea23f"/><stop offset="1" stop-color="#fcc000"/></linearGradient><linearGradient id="linear-gradient-9" x1="94.11" y1="8.3" x2="94.11" y2="67.73" gradientTransform="matrix(1 0 0 -1 0 76.41)" gradientUnits="userSpaceOnUse"><stop offset="0" stop-color="#cea23f"/><stop offset="1" stop-color="#fcc000"/></linearGradient><style>.cls-10,.cls-11,.cls-12,.cls-13,.cls-14{stroke-width:0}.cls-10{fill:#f8e82f}.cls-11{fill:#c0e6f9}.cls-12{fill:#64c0f9}.cls-13{fill:#83cffc}.cls-14{fill:#fff}</style></defs><path d="M145.54 51.89c-25.7-1.18-50.75.02-76.59 2.99-9.83 1.13-19.56 2.77-29.24 4.62-7.07 1.35-13.74 3.85-21.08 3.25-7-.58-13.92-3.95-15.97-10.34C.55 45.83 4.14 37 12.07 35.31c1.37-.29 2.8-.34 4.2-.18 2.83.33 5.67 1.59 7.72 3.34 8.08 6.91 15.83 11.85 27.61 8.1 11.56-3.36 17.84-15.08 9.81-20.68-4.4-2.75-9.67-3.2-14.87-3.77-4.38-.34-13.02-2.68-14.64-4.32-2.04-2.16-3.45-4.78-1.82-7.42 2.83-4.58 9.66-5.91 15.02-4.83 3.77.75 6.41 1.86 9.42 4.15 2.95 2.25 4.62 4.4 5.66 7.65 1.43-1.77 2.87-3.55 4.3-5.33.11-.13.29-.29.22-.43-3.98-7.52-16.76-9.42-25.32-7.94-1.45.25-2.89.58-4.29 1.01-4.82 1.46-9.26 4.96-10.39 9.48-.1.42-.18.84-.24 1.26-.21 11.87 16.42 11.2 25.86 13.08 1.59.31 3.14.8 4.6 1.51 2.9 1.4 7.22 4.92 3.77 10.46-3.57 4.84-10.5 3.96-15.59 2.21-1.78-.61-3.49-1.42-5.08-2.44-1.55-1-2.89-2.26-4.35-3.37-3.02-2.29-6.4-4.21-10.09-5.17-2-.52-4.07-.69-6.14-.54-7.22.51-14.25 4.63-16.46 10.94C-1.39 48.86.6 56.8 6.46 61.72c.31.26.62.5.94.74a22.5 22.5 0 0 0 3.8 2.25c8 3.42 16.86 3.07 25.3 1.39 8.61-1.71 16.88-4.61 25.54-6.17 9.73-1.75 19.37-3.9 29.18-5.24 3.07-.42 6.16-.77 9.25-1.03 40.02-3.55 77.94 1.89 115.53 14.57 4.36.16 16.13-.1 21-.1-27.46-10.33-61.98-14.29-91.45-16.26Z" style="stroke-width:0;fill:url(#linear-gradient)"/><path d="m189.24 20.85-.09.1c-.09.1-.17.21-.24.31l-.1.16-.12.21c-.07.14-.12.31-.16.48l-.02.06-.03.3v.31c0 .12 0 .23.02.34l.04.26.06.28.07.25.11.19.15.19.1.09c.06.06.14.12.22.17l.12.08.31.14c.12.04.24.08.38.11s.29.05.46.07.35.02.55.02h.5l.46-.05.41-.07.36-.09c.15-.04.29-.1.41-.15l.19-.08.24-.14c.07-.05.14-.1.2-.15.06-.05.12-.1.18-.16.06-.05.12-.11.18-.17.06-.06.12-.12.17-.19l.15-.23.13-.26.1-.31c.06-.23.09-.49.09-.81v-.29l-.05-.27-.06-.25-.09-.23-.11-.21-.13-.19-.14-.17-.17-.16-.18-.14-.19-.12-.21-.1-.22-.08-.23-.07-.24-.05-.25-.03H191.19s-.01 0-.02.01h-.07l-.02.01h-.02l-.02.01h-.02v.01H190.89l-.01.01h-.01l-.01.01h-.01l-.01.01h-.01v.01l-.02.01h-.02l-.02.02h-.02l-.02.02h-.02l-.02.02h-.02c-.46.22-.77.42-1 .64l-.07.06-.17.09Z" style="fill:url(#linear-gradient-2);stroke-width:0"/><path d="M67.15 46.7c.72.6 1.58.84 2.58.75 1.59-.15 3.53-.67 6.98-4.52.93-1.03 2-2.23 3.02-3.37-.58 1.42-.89 2.76-.9 4.05-.01 2.57 1.57 3.86 4.73 3.86 2.28 0 4.87-1.44 7.77-4.34 2.09-2.11 3.82-4.3 5.35-6.87 2.38-.42 5.07-2.18 6.73-3.47-.17.29-.29.52-.37.67-2.13 4.18-3.21 7.76-3.22 10.72 0 .89.33 1.67.98 2.33.66.66 1.49.99 2.49.99 1.61 0 4.01-1.67 7.79-5.19 1.5-1.4 5.27-4.52 7.36-6.36.63-.48 1.58-1.24 2.88-2.3 2.4-1.95 3.79-3.05 4.19-3.3v1.72c-.02 2.93-.45 5.64-1.29 8.14-.77 2.22-1.75 3.74-2.96 4.56-.76.54-1.61.81-2.53.81s-1.8-.36-2.52-1.08c.28.07.62.11 1.02.11.63 0 1.19-.24 1.65-.72.46-.49.7-1.01.7-1.58 0-1.69-.89-2.52-2.69-2.52-.96 0-1.75.29-2.38.86a2.79 2.79 0 0 0-.94 2.14c0 1.43.76 2.58 2.28 3.43 1.32.75 2.84 1.13 4.57 1.13h.48c2.64-.11 5.15-1.21 7.52-3.33 2.49-2.18 3.74-4.53 3.74-7.08 0-1.32-.7-3-2.12-5.02-1.42-2.01-2.12-3.17-2.12-3.45 0-.39.33-.96 1-1.69.66-.73.87-.96.95-1.17.18-.47-.25-.84-.86-.84-.44 0-.96.46-1.57 1.39-.8 1.18-1.95 2.41-3.44 3.69-1.37 1.11-2.71 2.2-4.03 3.27-.14.12-.26.22-.39.32l-.16.13c-.3.25-.58.49-.82.7-1.65 1.35-5.94 4.79-7.54 6.19-1.77 1.55-3.66 2.78-4.5 2.78-.04 0-.14-.02-.3-.05-.42-.12-.61-.61-.65-1.28 0-1.5.37-2.86 1.1-4.08l10.08-16.89h5.17l1.08-2.17h-5.11l4.77-7.37-6.43.27-7.25 11.8c-1.64 2.66-2.95 4.8-3.93 6.43-1.45 1.25-3.2 2.69-7.64 4.81.89-2.18 1.36-3.72 1.37-4.48 0-2.25-1.35-3.38-4.08-3.38-3.45 0-7 2.04-10.66 6.11-.21.24-.39.47-.58.7-2.62 2.62-5.57 5.86-7.54 7.54-1.81 1.55-2.56 1.61-3.4 1.69-.04 0-.14 0-.3-.03-.44-.1-.69-.53-.78-1.22-.05-.89.15-2.24.59-4.04.5-1.95 1.02-3.17 1.53-3.65 2.38-2.13 4.16-3.74 5.35-4.82 6.88-6.48 11.95-12.9 15.22-19.28.79-1.51 1.08-2.49 1.03-3.87-.04-1.38-1.25-1.98-3.37-1.77-4.34.42-9.31 4.61-14.89 12.57-4.47 6.39-7.7 12.77-9.68 19.13-1.09 3.49-1.52 6.33-1.32 8.54.08.89.48 1.63 1.2 2.23Zm25.97-16.98c.92-.65 1.77-.97 2.53-.97 1.04 0 1.56.59 1.56 1.77 0 .53-.2 1.25-.43 2.2-.27 1.09-.63 1.69-1.08 1.77-.12.04-.22.05-.3.05-.8 0-1.61-.3-2.44-.91-.82-.6-1.22-1.25-1.22-1.93s.47-1.34 1.39-1.98Zm-6.19 7.95c1.35-2.53 2.79-4.08 3.47-4.8.91 1.72 2.48 2.69 4.68 2.9-2.86 4.87-5.59 7.29-8.19 7.29-.8 0-1.25-.36-1.2-1.07.19-2.47 1.19-4.23 1.24-4.32Zm-5.42-20.49c4.56-7.22 8.18-10.96 10.91-11.22.29-.03 1.01-.06 1.06.98-.24 2.71-2.86 7.11-7.89 13.19-4.55 5.53-8.39 9.44-11.52 11.71 1.11-3.66 3.59-8.55 7.44-14.66Z" style="fill:url(#linear-gradient-3);stroke-width:0"/><path d="M153.21 45.63c4.57 3.23 11.1 1.7 17.91-2.15 4.27-2.42 7.89-5.65 10.64-8.63-2.09 3.98-7.46 11.73-1.4 12.46 4.19 0 10.4-7 13.69-9.53-4.11 8.53 1.22 14.09 9.87 4.84 1.75-1.83 7.37-9.61 7.86-10.13 1.01-.85 1.77-2.01 2.1-1.01 0 .25-1.16 2.14-3.47 5.68-2.81 5.06-4.83 6.38-2.46 9.68 3.01 2.45 7.1.33 9.37-2.04l-1.99 3.05c-.18.27-1.47.52-1.82.63-.7.24-1.4.46-2.09.71-1.44.5-2.87 1.05-4.21 1.75-2.51 1.32-4.59 3.32-4.35 6.09.03.4.14.74.28 1.06 2.27.49 4.53 1.01 6.76 1.56 2.57-.68 4.26-2.18 5.75-4.38 1.13-1.67 2.13-3.43 3.17-5.14.1-.17.58-1.23.76-1.26 5.28-.89 6.96-.13 9.74-.13 1.86-1.75 2.98-3.06 3.93-3.83.58-.47-.84-.38-3.4-.08-2 .23-5.44 1.05-8.61 1.74 3.3-4.35 8.57-13.86 11.82-18.76-.89-.13-3.31-.29-4.52-.06-1.51 1.68-4.34 6.14-6.14 8.62-2.56 3-3.75 6.32-7.21 7.73-3.02-.52-.13-3.75 1.25-7.02 1.33-2.58 2.41-4.53 3.3-5.96 1.54-4.7-3.81-4.15-7.29-1.11-4.35 2.61-8.48 12.33-13.32 13.49-2.04-1.41.09-4.72 1.06-6.25l9.62-16.29h5.17l1.08-2.13h-5.11l4.77-7.4-6.43.26c-2.74 4.38-12.33 20.01-13.23 22.36-2.39 2.48-9.68 8.19-11.61 8.94-.35 0-.56-.26-.37-.59 1.57-4.07 3.99-8.65 7.25-13.73h-6.37c-.15.31-.35.62-.57.92v-.04c-2.48 3.08-6.84 7.61-13.31 11.33-11.03 6.34-13.29-1.02-11.29-7.84 1.59-5.44 4.61-13.05 14.09-22.59 4.05-4.08 11.59-7.57 13.91-4.64 1.43 1.8.41 6.66-3.73 8.71-1.57.77-.5 1.65-.06 1.48 1.8-.73 4.57-3.45 5.39-6 1.67-5.17-2.47-9.93-13.2-4.61-12.41 6.15-18.94 14.27-23.29 23.67-1.94 4.19-4.31 13.38.27 16.6Zm53.54 12.65c-1.42 0-2.21-.59-2.05-1.8.19-1.39.96-2.24 1.95-3.02.98-.78 2.09-1.41 3.26-1.92l4.77-2.09c-3.28 5.73-6.05 8.84-7.93 8.84Z" style="fill:url(#linear-gradient-4);stroke-width:0"/><path style="fill:url(#linear-gradient-5);stroke-width:0" d="m152.89 61.92-1.51-2.99-1.52 2.99-3.37.49 2.43 2.33-.59 3.29 3.03-1.56 3.02 1.56-.57-3.29 2.45-2.33-3.37-.49z"/><path style="fill:url(#linear-gradient-6);stroke-width:0" d="m138.57 61.92-1.51-2.99-1.51 2.99-3.38.49 2.44 2.33-.59 3.29 3.03-1.56 3.02 1.56-.57-3.29 2.45-2.33-3.38-.49z"/><path style="fill:url(#linear-gradient-7);stroke-width:0" d="m124.25 61.92-1.5-2.99-1.52 2.99-3.38.49 2.44 2.33-.59 3.29 3.03-1.56 3.02 1.56-.57-3.29 2.45-2.33-3.38-.49z"/><path style="fill:url(#linear-gradient-8);stroke-width:0" d="m109.93 61.92-1.5-2.99-1.52 2.99-3.38.49 2.45 2.33-.59 3.29 3.02-1.56 3.03 1.56-.57-3.29 2.45-2.33-3.39-.49z"/><path style="fill:url(#linear-gradient-9);stroke-width:0" d="m95.62 61.92-1.5-2.99-1.52 2.99-3.38.49 2.44 2.33-.59 3.29 3.03-1.56 3.02 1.56-.57-3.29L99 62.41l-3.38-.49z"/><path class="cls-10" d="M93.59 35.48c.3.11.6.17.89.2-.31-.05-.61-.12-.89-.2ZM34.49 5.84c9.36-2.94 24.48-1.82 29.52 6.77.19-.32.7-.65.69-1.01C58.03.24 31.3-.18 25.19 12.7c1.88-3.24 5.47-5.7 9.31-6.86ZM16.85 32.33c8.04-.78 14.66 4.39 20.58 9.08 6.09 3.76 17.58 6.89 21.41-1.22-4.77 6.64-14.91 3.59-20.82.04-4.46-3.36-8.84-7.22-14.44-8.54-8.29-2.19-18.9 1.89-22.21 9.45 2.89-5.1 9.11-8.36 15.48-8.82Z"/><path class="cls-10" d="M236.99 68.15c-53.1-18.16-112.41-19.5-168.04-13.27-9.83 1.13-19.56 2.77-29.24 4.62-7.07 1.35-13.74 3.85-21.08 3.25-10.82-.36-20.19-9.64-15.3-20.14-6.04 10.77 3.18 20.89 14.72 21.32 7.34.6 14.01-1.9 21.08-3.25 9.69-1.85 19.42-3.49 29.24-4.62 56.25-7.42 114.33-2.6 168.63 12.09ZM188.49 22.25c.41-.55 1.2-.93 1.93-1.16.24-.07.49-.12.74-.13 1.99-.16 3.41.87 3.05 2.97.72-.78.82-2.09.31-3.03-.31-.53-.88-.9-1.48-1.04-.42-.1-.88-.09-1.31-.08-.14 0-.28.02-.42.05-.72.14-1.63.57-2.09 1.03-.36.39-.68.85-.75 1.39ZM129.46 33.11c2.13 3.13 2.63 4.84 1.61 7.75 3.16-4.7-1.42-8.82-3.15-12.38-1.24 1.81-.23 1.61 1.55 4.64Z"/><path class="cls-10" d="M111.05 40.49c-4.04 3.66-6.68 3.97-4.93-1.45-2.45 5.22-.95 7.51 4.37 2.63 4.01-3.38 8.9-7.31 12.95-10.62 1.04-.85 1.83-1.78 2.67-2.84.43-.55.86-1.09 1.36-1.58.25-.24 1.12-.86 1.46-.5.13.14.13.34.05.58-.46.52-.96 1.19-1.05 1.59-.12.15-.23.28-.28.36.09-.07.18-.14.27-.22v.04c.02-.03.05-.06.07-.09.44-.36.88-.73 1.27-1.15.4-.42.77-.92.79-1.5.01-.31-.1-.65-.36-.84-1.14-.8-2.14 1.16-2.64 1.82-.66.88-1.44 1.67-2.25 2.42-1.67 1.53-3.51 2.85-5.23 4.33-2.12 1.81-6.41 5.18-8.52 7.03h-.01ZM84.08 32.99c-.43.48-1.03 1.11-1.72 1.8-.41.62-.81 1.23-1.23 1.84.94-.91 1.76-1.76 2.38-2.46 5.31-7.08 18.88-9.83 13.37 1.74 8.01-3.89 7.53-4.72 11.56-11.24l7.25-11.8 6.23-.26.77-1.19-6.43.27-7.25 11.8c-4.04 6.53-3.55 7.35-11.56 11.24 5.51-11.57-8.06-8.82-13.37-1.74ZM119.58 42.31c.28-3.54-5.51-3.14-5.95-.14 1.51-2.06 5.96-1.48 5.35 1.6.39-.45.6-.94.6-1.46ZM122.44 19.98l.59-1.18h-4.92l-.76 1.18h5.09zM91.69 5.26c3.21-.39 3.79 1.46 3.14 3.65 1.14-2.42 1.26-5.38-2.68-4.87-9.03.58-21 20.08-24.15 29.51 3.27-9.13 15.09-27.89 23.69-28.29ZM102.83 33.96c-.28.33-.41.81-.61 1.18.08-.17.16-.33.24-.5.08-.16.2-.39.37-.67ZM175.66 6.53c10.9-5.39 15.05-.43 13.08 4.93 3.21-5.92-.95-11.83-12.52-6.11-12.29 6.09-18.81 14.12-23.16 23.4 4.35-8.78 10.83-16.39 22.59-22.22ZM214.97 12.58l.77-1.19-6.43.26c-2.74 4.38-12.33 20-13.23 22.35 2.3-4.38 10.21-17.27 12.66-21.18l6.23-.26ZM215.47 19.98l.6-1.18h-4.91l-.76 1.18h5.07zM184.99 28.64c-.15.31-.35.62-.57.92v-.04c-8.7 11.82-33.88 24.87-22.17-3.04-12.9 28.68 11.9 17.11 21.6 4.22v.04c.22-.31.41-.61.57-.92h6.2c.24-.39.49-.78.74-1.18h-6.37Z"/><path class="cls-10" d="M181.2 36.02c-.95 1.33-1.75 3.03-2.53 4.61.86-1.69 1.86-3.34 2.53-4.61ZM232.32 45.75c1.85-1.53 1.2-1.27-2.46-.94-1.93.22-5.2.99-8.28 1.66-.31.45-.62.87-.9 1.25 4.42-.96 8.21-1.94 11.64-1.98ZM213.29 32.61c-1.15 1.95-5.3 8.2-6.09 10.14.86-1.62 6.31-10.03 6.11-10.1 0-.02-.01-.02-.02-.04Z"/><path class="cls-10" d="M199.14 43.47c-1.15-.79-.97-2.2-.43-3.54-.89 1.63-1.64 3.69-.14 4.72 4.84-1.16 8.97-10.88 13.32-13.49 3.36-2.94 8.46-3.55 7.42.65 2.79-4.88-3.05-5.38-6.85-1.82-4.35 2.61-8.48 12.33-13.32 13.49ZM215.81 38.4c.12-.22.23-.45.34-.67-.09.17-.17.33-.26.5-.02.06-.05.11-.07.17ZM214.63 45.25c4.97-2.29 9.67-12.4 13.35-16.35 1.14-.21 3.34-.09 4.34.04.26-.41.51-.79.75-1.15-.89-.13-3.31-.29-4.52-.06-1.51 1.68-4.34 6.14-6.14 8.62-2.56 3-3.75 6.32-7.21 7.73-1.54-.26-1.54-1.24-.99-2.57-1 1.91-1.55 3.41.42 3.74ZM185.71 38.66c-.19.39-.36.78-.54 1.17.26-.51.47-.93.54-1.17ZM183.91 44.14c2.19-1.2 10.39-6.66 12.17-10.12-1.32 1.34-12.33 10.97-11.97 8.35.32-.82.68-1.67 1.07-2.54-.85 1.68-2.27 4.32-1.27 4.31ZM118.11 18.8l4.01-6.2-.2.01-4 6.19h.19zM95.64 28.75c-1.22-.08-3.87 1.47-3.91 2.84 3.11-2.97 6.14-1.9 4.38 2.63.85-1.39 2.16-5.47-.47-5.47ZM93.57 6.62c-.05-1.04-.77-1.01-1.07-.98-5.41-.05-16.62 19.75-18.23 25.1C76.22 25.3 86.94 6.71 92.04 6.88c1.22-.25 1.2 1.35.78 2.38.43-1.01.68-1.89.75-2.64ZM219.31 31.81c-.83 1.42-2.14 3.72-3.17 5.92 1.26-2.62 2.45-4.15 3.17-5.92ZM190.79 29.82h-.17c-1.97 3.14-3.6 6.09-4.91 8.84 1.37-2.76 3.07-5.7 5.08-8.84Z"/><path class="cls-10" d="M215.81 38.4c-.58 1.13-1.22 2.2-1.6 3.11.5-.96 1.13-2.03 1.6-3.11ZM211.16 18.8l4.01-6.22h-.2l-4 6.22h.19zM221.59 46.47c3.3-4.72 7.95-13.04 10.91-17.51-.05 0-.12-.02-.18-.02-3.26 5.12-8.01 13.58-11.07 17.61.11-.02.22-.05.34-.07ZM61.36 25.82c-4.43-2.76-9.73-3.21-14.95-3.78-3.96-.31-9.04-1.32-13.6-3.82-1.3-.71-2.42-1.78-2.97-3.15-.85-2.13-.16-3.76-.26-3.64-1.79 2.02-.77 5.44 1.52 7.46 1.63 1.65 10.31 4 14.72 4.34 5.23.57 10.53 1.02 14.95 3.78 3.89 2.71 4.44 6.84 2.67 10.77 2.45-4.27 2.21-8.97-2.07-11.95ZM94.05 58.76l-1.56 3.08-3.48.5.63.6 3.11-.45 1.56-3.07 1.55 3.07 2.65.38.56-.53-3.47-.5-1.55-3.08zM108.42 58.76l-1.56 3.08-3.47.5.62.6 3.12-.45 1.56-3.07 1.55 3.07 2.65.38.56-.53-3.48-.5-1.55-3.08zM122.8 58.76l-1.56 3.08-3.48.5.63.6 3.11-.45 1.56-3.07 1.55 3.07 2.65.38.57-.53-3.48-.5-1.55-3.08zM136.97 58.76l-1.57 3.08-3.47.5.63.6 3.11-.45 1.56-3.07 1.55 3.07 2.65.38.56-.53-3.47-.5-1.55-3.08zM151.34 58.76l-1.56 3.08-3.47.5.63.6 3.11-.45 1.56-3.07 1.54 3.07 2.66.38.56-.53-3.48-.5-1.55-3.08z"/><path class="cls-12" d="M162.6 58.42c-.05.07-.05.18-.1.25.05-.11.05-.18.1-.25Z"/><path class="cls-12" d="M235.96 66.27c.3-2.47-3.14-2.94-6.38-3.9-3.9-1.11-8-2.11-11.9-3.26-3.19-.82-6.43-1.61-9.67-2.36-4.91-1.15-9.92-2.22-15.19-2.47-3.34-.14-6.68.04-10.02-.07-6.89-.25-13.47-1.9-20.4-2.47-3.34-.29-6.78-.36-10.18-.14-2.73.18-5.16 1.04-7.8 1.5-1.97.36-4.05.18-6.08.14-.46 0-.86-.07-1.27-.18-1.62-.43-2.99-1.22-4.61-1.72-4.05-1.33-9.11-.9-13.62-.25-9.52 1.36-19.85 1.61-29.62 2.33-3.85.29-7.7.54-11.54.86-3.09.21-5.62 1.22-8.81 1.07-1.57-.07-3.04-.32-4.61-.43-1.57-.11-3.24-.04-4.56.5-1.27.54-1.92 1.65-1.01 2.36 1.27 1 3.9.57 6.02.47.71-.04 1.42-.04 2.13.04 2.08.18 3.85.9 4.86 1.93.51.54 1.06 1.11 1.57 1.65.25.25.96.14.86-.18 0-.07-.05-.18-.05-.25-.2-.64-.25-1.33-.15-2.01.1-.5.3-1 .86-1.36.66-.36 1.62-.47 2.48-.36.86.14 1.57.47 2.13.9.35.25.61.54.91.82 1.11 1.18 2.13 2.4 2.89 3.65.1.11.41.11.41-.04.05-.68.1-1.33.25-2.01.1-.36.2-.75.46-1.11s.71-.64 1.32-.75c.71-.14 1.52 0 2.08.29.46.21.81.47 1.11.79.1.11.3.07.35-.04.15-.36.3-.72.46-1.07.3-.64.96-1.18 1.87-1.58 2.84-1.18 7.49-1.9 10.94-1.65 5.06.36 10.68.61 11.49 5.09.05.14.35.18.46.07.86-.97 1.22-2.11 2.23-3.04 1.11-1.04 3.7-1.72 5.21-.93.1.04.2.04.3 0 1.22-.54 2.89-.72 4.35-.43 1.32.25 2.43.9 2.94 1.68.1.11.35.14.46 0 1.32-1.47 4.05-2.47 6.89-2.51 1.37-.04 9.67.21 12.15.21 1.42.04 2.84.07 4.25.11 1.16.11 2.38.29 3.19.75.61.32.96.82.91 1.29 0 .11.3.14.3 0 .05-.25 0-.54.2-.79s.71-.43 1.11-.29c.25.11.35.29.41.47.25.9.46 1.83.51 2.72 0 .14.35.14.41.04.25-.68.51-1.36.81-2.08.1-.25.3-.57.76-.57.25 0 .46.07.56.21.05.07.25.07.3 0 .1-.18.25-.36.41-.54.41-.36 1.06-.68 1.82-.68.46 0 .96.14 1.22.36.2.14.61.18.86.04.81-.5 2.03-.75 3.24-.64.81.07 1.57.18 2.33.32 2.23.47 4.15 1.65 4.3 3.01 0 .11.2.14.3.07.35-.18.51-.57.56-.9.05-.39.41-.9 1.06-.82.71.04.81.64.71 1.07-.2.82-1.82 6.38 2.03 1.25 2.38-2.44 12.1-1.04 12.1-1 6.23.93 12.51 1.83 18.78 2.69 1.01.14 2.08.29 2.89.64.61.25 1.06.68 1.16 1.07.05.21.35.36.71.36 1.06-.04 2.23.5 2.58 1.15.46.82.05 1.68-.41 2.47-.3.57-.61 1.15-.66 1.72 0 .18.46.25.56.07.76-1.04 1.67-2.04 2.73-2.97.41-.36 1.06-.75 1.77-.61.61.11.86.54.96.9.15.5.2.97.2 1.47 0 .18.46.25.56.07.41-.57.81-1.11 1.22-1.68.2-.25.41-.54.86-.68.71-.18 1.57.18 1.82.64.2.47 0 .93-.25 1.36-1.01 1.97-2.08 3.94-3.09 5.91-.1.21.35.32.51.14 2.08-2.19 4.15-4.33 6.28-6.48.1-.11.2-.21.35-.25.51-.14 1.06.21 1.01.54 0 .11-.05.29-.1.47-.05.14.25.18.35.07 1.01-.72 1.47-1.47 1.57-2.26Zm-93.97-10.35s.05 0 0 0h.1-.1Z"/><path class="cls-12" d="M235.96 66.27c.15-1.33-.61-2.65-3.09-3.15-1.67-.32-3.44-.29-5.11-.39-4.56-.32-8.56-1.86-12.76-2.97-2.78-.72-5.67-1.25-8.56-1.79-4.96-.86-9.97-1.68-14.99-2.4-3.24-.47-6.48-.9-9.77-1.29-6.58-.82-13.21-1.5-19.9-1.93-3.34-.21-6.68-.43-10.02-.47-2.68-.07-4.71.79-7.24 1.22-1.97.36-4.05.18-6.08.14-.46 0-.86-.07-1.27-.18-1.62-.43-2.99-1.22-4.61-1.72-4.05-1.33-9.11-.9-13.62-.25-2.53.36-5.27.97-7.8 1.07-2.68.11-5.42-.29-8.05-.36-4.66-.18-9.37.32-13.92.9-3.65.47-7.24.93-10.83 1.47-3.04.43-6.18 1.33-9.32 1.18-1.57-.07-3.04-.32-4.61-.43-1.57-.11-3.24-.04-4.56.5-1.27.54-1.92 1.65-1.01 2.36 1.27 1 3.9.57 6.02.47.71-.04 1.42-.04 2.13.04 2.08.18 3.85.9 4.86 1.93.51.54 1.06 1.11 1.57 1.65.25.25.96.14.86-.18 0-.07-.05-.18-.05-.25-.2-.64-.25-1.33-.15-2.01.1-.5.3-1 .86-1.36.66-.36 1.62-.47 2.48-.36.86.14 1.57.47 2.13.9.35.25.61.54.91.82 1.11 1.18 2.13 2.4 2.89 3.65.1.11.41.11.41-.04.05-.68.1-1.33.25-2.01.1-.36.2-.75.46-1.11s.71-.64 1.32-.75c.71-.14 1.52 0 2.08.29.46.21.81.47 1.11.79.1.11.3.07.35-.04.15-.36.3-.72.46-1.07.3-.64.96-1.18 1.87-1.58 2.84-1.18 7.49-1.9 10.94-1.65 5.06.36 10.68.61 11.49 5.09.05.14.35.18.46.07.86-.97 1.22-2.11 2.23-3.04 1.11-1.04 3.7-1.72 5.21-.93.1.04.2.04.3 0 1.22-.54 2.89-.72 4.35-.43 1.32.25 2.43.9 2.94 1.68.1.11.35.14.46 0 1.32-1.47 4.05-2.47 6.89-2.51 1.37-.04 9.67.21 12.15.21 1.42.04 2.84.07 4.25.11 1.16.11 2.38.29 3.19.75.61.32.96.82.91 1.29 0 .11.3.14.3 0 .05-.25 0-.54.2-.79s.71-.43 1.11-.29c.25.11.35.29.41.47.25.9.46 1.83.51 2.72 0 .14.35.14.41.04.25-.68.51-1.36.81-2.08.1-.25.3-.57.76-.57.25 0 .46.07.56.21.05.07.25.07.3 0 .1-.18.25-.36.41-.54.41-.36 1.06-.68 1.82-.68.46 0 .96.14 1.22.36.2.14.61.18.86.04.81-.5 2.03-.75 3.24-.64.81.07 1.57.18 2.33.32 2.23.47 4.15 1.65 4.3 3.01 0 .11.2.14.3.07.35-.18.51-.57.56-.9.05-.39.41-.9 1.06-.82.71.04.81.64.71 1.07-.2.82-1.82 6.38 2.03 1.25 2.38-2.44 12.1-1.04 12.1-1 6.23.93 12.51 1.83 18.78 2.69 1.01.14 2.08.29 2.89.64.61.25 1.06.68 1.16 1.07.05.21.35.36.71.36 1.06-.04 2.23.5 2.58 1.15.46.82.05 1.68-.41 2.47-.3.57-.61 1.15-.66 1.72 0 .18.46.25.56.07.76-1.04 1.67-2.04 2.73-2.97.41-.36 1.06-.75 1.77-.61.61.11.86.54.96.9.15.5.2.97.2 1.47 0 .18.46.25.56.07.41-.57.81-1.11 1.22-1.68.2-.25.41-.54.86-.68.71-.18 1.57.18 1.82.64.2.47 0 .93-.25 1.36-1.01 1.97-2.08 3.94-3.09 5.91-.1.21.35.32.51.14 2.08-2.19 4.15-4.33 6.28-6.48.1-.11.2-.25.35-.25.86-.11.96.5.86 1.04 0 .14.3.18.41.07.86-.75 1.32-1.47 1.42-2.29Zm-93.97-10.35s.05 0 0 0h.1-.1Z"/><path class="cls-13" d="M235.96 66.27c.05-.5-.05-1-.35-1.47l-.61.21c-1.16.32-2.58.18-3.85.07-2.99-.32-6.02-.64-8.66-1.54-2.68-.9-4.81-2.36-7.7-3.04-1.32-.32-2.68-.47-4.1-.57-6.43-.54-13.01-.64-19.04-1.9-1.27-.25-2.53-.57-3.85-.75-1.87-.21-3.9-.11-5.72-.43-1.92-.36-3.59-1.15-5.57-1.36-2.38-.21-4.71.47-7.04.36-1.92-.11-3.8-.57-5.72-.39-7.49.64-7.95-1.04-13.01-1.04-3.75 0-12.05.72-16.05 1.18-1.47.18-3.04.07-4.4-.29-.05 0-.1-.04-.1-.04-2.08-.5-4.35-.54-6.48-.14-2.18.43-4.51.57-6.78.43-2.58-.18-5.11-.75-7.7-.9-3.75-.21-7.49.39-11.09 1-3.75.61-7.54 1.18-11.39 1.07-2.58-.07-5.21-.39-7.8-.14-1.92.18-3.75.72-5.67.79-1.62.07-3.19-.21-4.81-.21-2.33 0-4.56.54-6.58 1.25 1.01 0 2.13-.14 3.09-.18.71-.04 1.42-.04 2.13.04 2.08.18 3.85.9 4.86 1.93.51.54 1.06 1.11 1.57 1.65.25.25.96.14.86-.18 0-.07-.05-.18-.05-.25-.2-.64-.25-1.33-.15-2.01.1-.5.3-1 .86-1.36.66-.36 1.62-.47 2.48-.36.86.14 1.57.47 2.13.9.35.25.61.54.91.82 1.11 1.18 2.13 2.4 2.89 3.65.1.11.41.11.41-.04.05-.68.1-1.33.25-2.01.1-.36.2-.75.46-1.11s.71-.64 1.32-.75c.71-.14 1.52 0 2.08.29.46.21.81.47 1.11.79.1.11.3.07.35-.04.15-.36.3-.72.46-1.07.3-.64.96-1.18 1.87-1.58 2.84-1.18 7.49-1.9 10.94-1.65 5.06.36 10.68.61 11.49 5.09.05.14.35.18.46.07.86-.97 1.22-2.11 2.23-3.04 1.11-1.04 3.7-1.72 5.21-.93.1.04.2.04.3 0 1.22-.54 2.89-.72 4.35-.43 1.32.25 2.43.9 2.94 1.68.1.11.35.14.46 0 1.32-1.47 4.05-2.47 6.89-2.51 1.37-.04 9.67.21 12.15.21 1.42.04 2.84.07 4.25.11 1.16.11 2.38.29 3.19.75.61.32.96.82.91 1.29 0 .11.3.14.3 0 .05-.25 0-.54.2-.79s.71-.43 1.11-.29c.25.11.35.29.41.47.25.9.46 1.83.51 2.72 0 .14.35.14.41.04.25-.68.51-1.36.81-2.08.1-.25.3-.57.76-.57.25 0 .46.07.56.21 0 .04.05.04.1.07.1 0 .2-.04.2-.07.1-.18.25-.36.41-.5.41-.36 1.06-.68 1.82-.68.46 0 .96.14 1.22.36.2.14.61.18.86.04.81-.5 2.03-.75 3.24-.64.81.07 1.57.18 2.33.32 2.23.47 4.15 1.65 4.3 3.01 0 .11.2.14.3.07.35-.18.51-.57.56-.9.05-.39.41-.9 1.06-.82.71.04.81.64.71 1.07-.2.82-1.82 6.38 2.03 1.25 2.38-2.44 12.1-1.04 12.1-1 6.23.93 12.51 1.83 18.78 2.69 1.01.14 2.08.29 2.89.64.61.25 1.06.68 1.16 1.07.05.21.35.36.71.36 1.06-.04 2.23.5 2.58 1.15.46.82.05 1.68-.41 2.47-.3.57-.61 1.15-.66 1.72 0 .18.46.25.56.07.76-1.04 1.67-2.04 2.73-2.97.41-.36 1.06-.75 1.77-.61.61.11.86.54.96.9.15.5.2.97.2 1.47 0 .18.46.25.56.07.41-.57.81-1.11 1.22-1.68.2-.25.41-.54.86-.68.71-.18 1.57.18 1.82.64.2.47 0 .93-.25 1.36-1.01 1.97-2.08 3.94-3.09 5.91-.1.21.35.32.51.14 2.08-2.19 4.15-4.33 6.28-6.48.1-.11.2-.25.35-.25.86-.11.91.57.81 1.15 0 .11.25.18.35.07.81-.82 1.32-1.58 1.42-2.44Zm-93.97-10.35s.05 0 0 0h.1-.1Z"/><path class="cls-11" d="M232.97 63.12c-1.32-.43-2.89-.68-4.1-1.18-.46-.18-.86-.43-1.27-.61-3.39-1.65-8-1.4-11.59-2.69s-7.39-2.44-11.34-3.33c-1.11-.25-2.28-.5-3.49-.64-2.63-.29-5.32 0-7.9-.25-2.33-.21-4.46-.82-6.63-1.29-1.47-.32-3.09-.54-4.66-.54-1.37.04-2.03.47-3.24.57-1.11.11-2.38-.18-3.44-.32-.61-.11-1.16-.18-1.77-.29-4.15-.64-7.85-1.07-12.15-1.18-2.23-.07-4.51-.29-6.73-.32-1.72-.04-2.89.32-4.61.5-1.67.18-3.39.07-5.11 0-4.3-.18-9.47.07-13.62-.5-4.4-.61-8.05-.57-12.51.07-3.65.5-7.75 1.33-11.54 1.07s-7.19-.93-11.19-.75c-3.44.14-6.83.64-10.23 1.22-2.94.47-6.02.86-8.91 1.47-2.84.57-5.06 1.4-8.2 1.29-1.57-.07-3.04-.32-4.61-.43-1.57-.11-3.24-.04-4.56.5-.96.39-1.57 1.15-1.42 1.79 1.06.14 2.33.11 3.39 0 5.16-.43 10.38-.82 15.39-1.68 2.03-.36 4.05-.79 6.13-.82 2.08-.04 4.1.25 6.18.21 4.71-.14 8.76-2.26 13.52-2.44 4.1-.14 7.85 1.18 11.9 1.36 4.46.21 8.86-.97 13.37-.72 2.99.18 5.77.93 8.71 1.07 6.13.29 12.25-2.26 18.33-1.33 2.23.36 4.2 1.15 6.48 1.25 2.63.11 5.21-.75 7.9-.54 2.03.18 3.8.93 5.82 1.07 1.77.11 3.54-.29 5.32-.32 5.37-.14 9.97 2.69 15.24 2.72 3.34.04 6.94-1 9.92-.04 1.22.39 2.13 1.11 3.44 1.36 1.27.25 2.68 0 3.95.29 1.22.25 2.03.93 2.94 1.47 1.27.72 2.94 1.22 4.66 1.43 2.43.29 4.71.93 6.63 1.86 1.82.9 4.66 1.22 6.78.57.1-.04.2-.07.25-.07-.2-.47-.81-.72-1.42-.9Z"/><path class="cls-14" d="M96.38 52.3c-.2-.14-.46-.25-.81-.29-.66-.07-1.32.07-1.97.18-3.75.72-7.8.79-11.49 1.61-.05.25.41.47.86.5 2.68.14 5.11-.79 7.75-.9.86-.04 1.67.11 2.53.04.46-.04 3.04-.47 3.24-.64.15-.14.1-.32-.1-.5ZM59.83 55.88c-.3.21-.51.61-.1.79.3.18.81.11 1.27.04 1.01-.18 2.03-.47 3.04-.54 1.01-.04 2.13.11 3.09-.07.25-.04.56-.18.51-.32s-.3-.21-.51-.25c-1.42-.25-2.94-.36-4.46-.29-1.06.04-2.18.18-2.84.64ZM124.93 50.83c-.61 0-1.27.07-1.87.14-1.42.18-2.84.32-4.25.5-1.16.14-2.33.29-3.44.57-.3.07-.66.18-.71.39-.05.14.1.29.3.36.2.07.46.11.71.14 1.22.11 2.43-.14 3.59-.39s2.33-.57 3.54-.61c.86-.04 1.67 0 2.53.07.71.04 1.42.07 2.13-.04.3-.04.61-.11.76-.29.15-.14-.56-.75-3.29-.86ZM164.78 52.48c-.86-.14-1.67-.39-2.53-.5-1.52-.25-3.09-.21-4.66-.21-.56 0-1.16.04-1.47.29 1.42.57 2.84 1.07 4.66.97 1.01-.04 2.08-.25 3.04-.11 1.47.25 1.82.32 3.34.21s2.99-.29 4.4.18c.51.14.91.36 1.42.47s1.22.07 1.47-.18c-.81-.75-2.63-1-4.25-1s-3.24.18-4.81 0c-.2-.04-.41-.07-.61-.11ZM207.71 56.63c-2.94-.97-6.28-1.68-9.62-1.47-.76.04-1.52.14-2.28.14-.81 0-1.62-.14-2.43-.29-3.39-.64-6.53-1.61-10.02-1.79-.61-.04-1.27-.07-1.77.11-.51.14-.86.57-.51.82 2.63.47 5.16-.07 7.59.93.46.18.81.39 1.32.54.46.14.96.25 1.52.32 2.53.39 5.16.5 7.75.32 1.06-.07 2.18-.21 3.24-.11 1.72.11 3.59.86 5.21.47ZM221.73 60.79c1.06.14 2.53.18 2.89.32.3.07.56.21.76.32.35.18.76.39 1.06.64.25.18.46.36.76.5 1.16.47 1.52-.36.81-.79-.3-.18-.71-.29-1.11-.39-.96-.29-5.72-1.93-6.28-1.25-.25.32.3.5 1.11.64ZM227.1 73.61c1.72-2.11 3.7-4.12 5.92-6.05.15-.14.35-.29.61-.36-1.01-.04-1.82.43-2.33.93s-.81 1.07-1.47 1.5c-.25.14-.56.29-.71.47-.15.14-.25.29-.3.47-.66.97-1.16 2.01-1.72 3.04ZM226.95 66.56c.3-.25.61-.47 1.01-.64-.35-.07-.71.04-.96.21-.25.14-.41.36-.66.5s-.71.18-.96.04c-.05.54 0 1.07.15 1.61.35-.64.81-1.22 1.42-1.72ZM222.85 65.98c-.46.04-.71.29-.96.5-.2.21-.46.5-.86.57-.1.04-.25.04-.35.04-.35.07-.51.29-.66.5-.25.5-.41 1.04-.46 1.58a12.1 12.1 0 0 1 3.29-3.19ZM217.08 63.91c.05.07.2.14.41.14.15 0 .3-.04.46-.07-.3-.07-.61-.18-.81-.32-.05.11-.1.18-.05.25ZM213.99 61.65c-1.06-.29-2.23-.5-3.39-.57-.66-.04-1.37-.07-2.08-.07-3.54-.14-6.94-.86-10.38-1.4-1.06-.18-2.13-.32-3.24-.29.46.14.91.29 1.37.36.51.11 1.01.18 1.52.25 4 .54 8.05 1.11 12.1 1.58 1.37.18 2.78.32 4.1.14ZM184.62 58.78c-1.32.04-2.68.29-3.44.9-.35.29-.56.68-1.01.93-.1.04-.15.11-.2.14-.05.07-.1.14-.1.21-.1.29-.15.54-.25.82-.05.11-.05.25.15.32 1.01-.79 1.42-1.83 2.73-2.44.71-.29 1.67-.47 2.13-.9ZM177.48 58.25c-.05.07-.15.11-.3.11h-.2c-.05 0-.15.04-.15.07s0 .04.05.07c.15.21.3.39.46.61 0 .04.05.04.1.04.05-.21.15-.39.25-.61.1-.18.2-.36.41-.5.2-.11.46-.18.61-.32-.25-.04-.51.04-.71.14-.25.14-.35.25-.51.39ZM166.4 56.67c-.46.04-.91-.11-1.37-.21-.46-.11-.96-.18-1.37-.04-.51.14-.71.57-1.22.68-.35.07-.76 0-1.11-.04s-.81-.04-1.01.14c-.1.11-.15.21-.15.36-.15.82-.15 1.65-.05 2.47.15-.47.3-.93.46-1.36.1-.36.25-.72.66-.97.2-.11.46-.21.76-.21s.56.11.66.25c.2-.47.81-.9 1.62-1.04s1.72-.04 2.33.32c.05.04.15.07.25.07s.15-.04.25-.07c.41-.25.71-.57.96-.9-.56.25-1.06.5-1.67.54ZM157.59 57.67c.2-.32.61-.57 1.06-.79-.3-.11-.71-.04-.91.14a.72.72 0 0 1-.2.18c-.1.04-.2.07-.3.04.1.11.2.25.35.43ZM146.4 55.7c-2.63-.07-5.27-.21-7.85-.11 1.77.29 3.59.29 5.37.32 1.01 0 2.03.04 3.04.07 2.03.04 4.1.11 6.02-.29-.86-.04-1.72-.04-2.58-.07-.46 0-.96-.04-1.42 0-.41.04-.81.07-1.22.11-.41 0-.91-.04-1.37-.04ZM132.48 56.35c-.61.25-1.27.5-1.97.54-.51.04-1.01 0-1.52-.07-.05.18.15.39.35.54.2.18.46.39.66.57l.05.04c.1.07.25-.04.35-.11.35-.39 1.01-1 3.09-1.72-.41 0-.76.11-1.01.21ZM121.64 56.74c.1.04.2.11.35.14.05.04.1.04.2.07.25.07.56-.04.76-.14.1-.07.15-.11.25-.18.15-.07.35-.11.46-.18-.66.14-1.42.21-2.13.21 0 .04.05.07.1.07ZM114.25 60.36c.05.14.41.18.51.04.05-.04.05-.07.1-.14.56-.97 1.16-1.93 1.87-2.87-.61.18-.71.64-1.16.97-.3.21-.71.36-1.16.39-.1 0-.2 0-.25.04-.1.04-.1.11-.1.18 0 .47.05.93.2 1.4ZM89.75 58.1c-.15.18-.2.36-.41.54-.3.25-.86.36-1.37.43-.1.18.1.39.3.54.2.14.46.29.61.47.1-.04.15-.11.15-.18.3-.86.96-1.68 1.82-2.36-.51.07-.91.29-1.11.57ZM83.37 60.36c-.05.14-.05.32-.25.43-.2.11-.46.11-.71.07 0 .57.46 1.11.91 1.65.15-.97.46-1.9.81-2.83-.41.14-.66.39-.76.68ZM72.33 59.97v.07c.15.32.46.64.81.93.15.11.35.21.46.32-.05-.97-.35-1.97.25-2.87-.25.14-.35.36-.46.54-.05.21-.1.43-.2.61-.15.18-.41.36-.76.36 0 0-.05 0-.1.04ZM235.05 67.92c.2-.25.41-.5.35-.79-.15.21-.61.36-1.01.29-.05.04 0 .11 0 .14.2.21.3.43.41.64.1-.11.15-.21.25-.29Z"/><path class="cls-12" d="M59.62 56.78c-.56.04-1.06.04-1.62 0-1.82-.18-2.89-.32-4.81.11-1.47.36-2.89.82-4.4 1.11-1.87.36-3.8.39-5.72.54-2.84.25-5.62.72-8.2 1.47-2.28.64-4.4 1-6.68 1.61-1.62.47-3.24 1.04-4.15 1.86-1.52 1.36-.51 2.83.51 4.05.96 1.18 1.97 2.33 2.94 3.51.15.21.35.39.61.57.2.14.66.04.66-.14-.15-1.86-1.92-3.55-1.42-5.41.1-.36 1.06-.47 1.27-.18.46.72 1.11 1.43 1.87 2.08.05.07.2.07.3.07.35 0 .46-.25.46-.39 0-.64-.25-1.29-.1-1.93.1-.43 1.27-.64 1.67-.32.3.21.61.39 1.11.36.3-.04.56-.14.86-.18.76-.11 1.27.25 1.57.57.81.82 1.57 1.65 2.38 2.44.15.14.56.07.61-.11.2-1.07-.66-2.11-.96-3.15-.15-.57 1.27-1.04 2.18-.72.2.07.35.14.56.18.15.04.41 0 .51-.11.25-.32.15-.68.15-1 0-.39.2-.9 1.01-1.11.86-.21 1.77.11 2.13.5.35.39.46.86 1.01 1.15.15.07.35.14.61.07.1-.04.15-.07.2-.11.35-.29.25-1.61.61-1.86.56-.43 1.67.61 1.97.86.05.04.1.07.15.07.51.18 1.11-.25 1.06-.54s-.25-.57 0-.82c.51-.43 1.82-.29 2.33.07.25.21.56.5 1.11.43 1.01-.11.51-.97 1.37-1.29.41-.14.91-.11 1.42-.11 1.97 0 3.8-.75 5.82-.97.35-.04.71-.07 1.06 0 .51.07.86.32 1.06.54.66.75.66 1.65 1.47 2.33.2.18.81.11.86-.14.35-1.07-.46-2.19.46-3.26.05-.04.1-.07.15-.11.56-.25 1.37 1.04 1.82.97.41-.07.71-.54 1.11-.82s1.27-.32 1.92-.25c.41.04.76.11 1.16.14.46.04.91-.14.96-.36.25-.68.3-1.36.15-2.04-.1-.5-.35-1-1.22-1.25-1.01-.32-2.53-.11-3.75-.25-1.16-.11-2.13-.47-3.34-.39-1.11.07-2.03.5-2.99.86-1.22.39-2.53.75-3.85.82Z"/><path class="cls-11" d="M70 56.38c.76-.21 1.47-.5 2.03-.82-.76-.04-1.62 0-2.33-.07-1.16-.11-2.13-.47-3.34-.39-1.11.07-2.03.5-2.99.86-1.11.39-2.43.68-3.8.82-5.21.5-10.58.75-15.8 1.54-3.9.57-7.8 1.33-11.59 2.19-2.89.64-6.48 1.4-8.2 2.97-.56.5-.76 1.04-.76 1.54 1.52.04 3.19-.21 4.66-.64 2.38-.72 4.35-1.9 6.94-2.19 1.57-.18 3.19 0 4.71-.32 1.57-.36 2.58-1.15 4.05-1.61 1.92-.61 4.2-.54 6.28-.47s4.51 0 6.13-.75c1.01-.47 1.57-1.11 2.68-1.5 1.57-.57 3.54-.39 5.32-.39 2.08 0 4.2-.21 6.02-.75Z"/><path class="cls-13" d="M74.66 56.99c-.1-.36-.25-.75-.71-1.04-.1.68-1.11 1.36-2.43 1.76-1.67.5-3.7.61-5.52.5-.81-.04-1.62-.11-2.43.04-1.42.25-2.18 1-3.39 1.43-.91.36-2.08.47-3.19.61-2.13.25-4.3.54-6.43.47-1.67-.04-3.8-.21-4.91.5-.51.32-.81.79-1.57.82-.25 0-.51-.04-.71-.07-1.47-.11-2.48.9-3.9 1.29-1.47.39-3.09.07-4.61.32-.96.18-1.72.54-2.58.82-.56.18-1.16.32-1.77.47-1.62.39-3.85.47-5.06 1.9-.25.29-.96-.39-1.57-.29h-.05c.2.32.46.64.71.93.96 1.18 1.97 2.33 2.94 3.51.15.21.35.39.61.57.2.14.66.04.66-.14-.15-1.86-1.92-3.55-1.42-5.41.1-.36 1.06-.47 1.27-.18.46.72 1.11 1.43 1.87 2.08.05.07.2.07.3.07.35 0 .46-.25.46-.39 0-.64-.25-1.29-.1-1.93.1-.43 1.27-.64 1.67-.32.3.21.61.39 1.11.36.3-.04.56-.14.86-.18.76-.11 1.27.25 1.57.57.81.82 1.57 1.65 2.38 2.44.15.14.56.07.61-.11.2-1.07-.66-2.11-.96-3.15-.15-.57 1.27-1.04 2.18-.72.2.07.35.14.56.18.15.04.41 0 .51-.11.25-.32.15-.68.15-1 0-.39.2-.9 1.01-1.11.86-.21 1.77.11 2.13.5.35.39.46.86 1.01 1.15.15.07.35.14.61.07.1-.04.15-.07.2-.11.35-.29.25-1.61.61-1.86.56-.43 1.67.61 1.97.86.05.04.1.07.15.07.51.18 1.11-.25 1.06-.54s-.25-.57 0-.82c.51-.43 1.82-.29 2.33.07.25.21.56.5 1.11.43 1.01-.11.51-.97 1.37-1.29.41-.14.91-.11 1.42-.11 1.97 0 3.8-.75 5.82-.97.35-.04.71-.07 1.06 0 .51.07.86.32 1.06.54.66.75.66 1.65 1.47 2.33.2.18.81.11.86-.14.35-1.07-.46-2.19.46-3.26.05-.04.1-.07.15-.11.56-.25 1.37 1.04 1.82.97.41-.07.71-.54 1.11-.82s1.27-.32 1.92-.25c.41.04.76.11 1.16.14.46.04.91-.14.96-.36.15-.61.2-1.29.05-1.97Z"/><path class="cls-14" d="M36.99 61.36c3.85.32 4.51-1.86 7.7-2.29-.05-.14-.15-.29-.2-.43-4.2.61-8.05 1.72-12.3 2.33-2.18.29-4.51.64-6.13 1.5-.61.32-1.11.72-1.11 1.11-.05.39.51.75 1.27.75.96 0 1.77-.43 2.48-.82 1.37-.75 2.89-1.5 4.71-2.01.51-.14 1.01-.25 1.57-.29.66-.07 1.32.07 2.03.14ZM68.84 59.86s0 .07.1.07c.05 0 .15 0 .2-.04.41-.18.41-.47.86-.61.2-.07.51-.11.76-.11.71-.04 1.47-.04 2.18 0 .3.04.71.04.86-.11.05-.04.05-.07.05-.11.05-.25.1-.5.2-.79.05-.32.15-.64-.1-.93-.25.43-.51.86-1.22 1.18-.56.25-1.37.39-2.03.32-.86-.07-1.77.29-1.77.72-.15.14-.1.29-.1.39ZM65.6 60.25c-.1.04-.2.04-.3.07q-.05.04-.05.07c-.1.21.1.39.25.54.3.32.51.64.61 1 .2 0 .3-.14.35-.25.05-.43-.15-.9-.1-1.33.05-.5.41-1 .96-1.43-.41.04-.71.18-.91.36-.2.18-.3.36-.35.54-.05.18-.15.39-.46.43ZM53.29 61.86c0 .07.15.07.25.07h.66c.05-.04.1-.07.1-.11.1-.14.1-.32.15-.47.05-.14.2-.32.51-.43-.25.04-.51.04-.76.11s-.46.18-.41.32c0 .11.1.18 0 .25-.15.14-.56.18-.51.25ZM61.55 59.97c-1.11.39-2.38.64-3.65.75-.15 0-.3 0-.35-.04 1.77-.18 3.49-.61 4.86-1.25-.1.21-.51.39-.86.54ZM49.35 62.47c-.05 0-.1 0-.1.04-.1.04 0 .14.1.18.2.07.35.14.56.21.41-.36-.35-.79.1-1.15-.25.14-.56.29-.51.47-.05.07.05.21-.15.25ZM41.9 62.9c-.41.18-.41.47-.66.68-.41.32-1.32.47-1.87.61.61 0 1.22.04 1.77.04.2 0 .35-.07.3-.18-.1-.36.05-.75.46-1.15ZM38.97 67.92c.1-.29 0-.54-.1-.79-.25-.72-.96-1.04-.81-2.11-.41.18-.46.5-.41.75.1.25.3.47.35.72 0 .04 0 .11-.05.14-.1.07-.25.11-.35.21s.05.21.25.29c.51.18.91.47 1.11.79ZM33.6 65.34c.05.11.25.21.51.18s.46-.14.51-.25c.1-.14.1-.29.05-.43-.1.11-.3.18-.56.21-.15.04-.35.04-.46.11-.1.07-.1.14-.05.18ZM30.56 67.49c.1.07.25.11.41.07.15-.68-.41-1.29-.2-1.97-.2.07-.25.5-.25.61.2 1.22-.46.47-.91.54.25.25.56.5.96.75ZM27.02 66.02c-.56.36-.51.79-.91 1.18-.2.18-.25.36-.35.54-.1.14 0 .32.1.47.51.75 1.06 1.47 1.57 2.22.05.04.05.11.15.11.1.04.2 0 .3-.04-.15-.32-.3-.68-.46-1-.46-.97-.76-2.47-.41-3.47ZM45.95 63.4c-.1.04-.2 0-.25 0-.1 0-.2-.04-.3-.04.05.29.3.57.76.75.05 0 .1.04.15.04.1 0 .2-.07.2-.14.35-.61.2-1.22.71-1.79-.3.11-.46.32-.56.5-.15.18-.3.39-.46.57-.15.04-.2.07-.25.11Z"/><path class="cls-12" d="M39.64 3.79c.45-.06.96-.21 1.32-.43.82-.48.91-1.25 1.42-1.92.7-.9 2.25-1.46 3.9-1.44 1.65.02 3.25.6 4.49 1.41.78.5 1.38 1.08 2.09 1.62 2.67 1.88 6.4 2.69 9.33 4.66 1.08.73 2.09 1.67 2.53 2.7.69 1.78-.54 3.04-1.65 4.11l-3.14 3.08c-.19.19-.37.37-.55.51-.17.08-.38-.04-.31-.24.8-1.83 2.5-3.3 2.71-5.29.04-.36-.59-.68-.79-.34-.52.72-1.13 1.33-1.81 1.93-.06.05-.12.09-.22.03-.22-.02-.25-.28-.18-.43.18-.65.47-1.29.54-2.01.05-.46-.69-.8-1.05-.47-.24.18-.48.36-.8.28-.16-.07-.37-.19-.52-.26-.48-.15-.85.22-1.1.5-.64.81-1.23 1.68-1.87 2.54-.13.14-.34.07-.32-.09.06-1.13.68-2.2 1.01-3.3.17-.6-.71-1.16-1.29-.81-.12.09-.23.13-.35.22-.11.04-.28.02-.32-.09-.13-.32-.09-.73-.05-1.09.04-.41-.12-.99-.65-1.2-.58-.22-1.18.18-1.39.63-.21.44-.27.95-.58 1.28-.07.1-.19.19-.34.12-.05 0-.1-.06-.1-.11-.25-.28-.26-1.73-.51-1.97-.4-.4-.97.83-1.16 1.06 0 .05-.07.1-.07.1-.3.23-.7-.18-.72-.49-.02-.31.12-.61-.13-.89-.4-.4-1.21-.08-1.42.37-.14.24-.23.6-.56.61-.61.04-.51-.93-1.09-1.15-.27-.08-.61.04-.9.11-1.2.34-2.53-.06-3.82.11-.22.03-.45.11-.63.24-.29.18-.39.53-.36.79-.04.93.3 1.84.15 2.7-.03.26-.36.27-.51.1-.61-.99-.7-2.29-1.71-3.13-.05-.06-.1-.06-.16-.07-.43-.1-.26 1.37-.54 1.44-.22.03-.63-.32-1-.47-.37-.14-.89.06-1.2.34-.18.14-.37.32-.55.51-.24.18-.57.15-.72-.02-.55-.57-.98-1.19-1.35-1.85-.22-.49-.44-1.08-.1-1.61.4-.63 1.43-.98 2.09-1.48.65-.45 1.06-1.13 1.92-1.4.74-.23 1.61-.09 2.37.04.76.08 1.76.03 2.71-.07Z"/><path class="cls-11" d="M32.82 6.16a6.28 6.28 0 0 1-1.7-.13c.47-.26.99-.51 1.41-.83.65-.45 1.06-1.13 1.92-1.4.74-.23 1.61-.09 2.37.04.93.1 1.92.1 2.82-.06.45-.06.96-.21 1.32-.43.47-.26.73-.65.94-1.04.31-.33.46-.73.67-1.07.75-.8 2.18-1.27 3.72-1.21 1.65.02 3.25.6 4.49 1.41.78.5 1.38 1.08 2.09 1.62 2.67 1.88 6.4 2.69 9.33 4.66 1.08.73 2.09 1.67 2.53 2.7.26.65.26 1.22.09 1.77a7.908 7.908 0 0 1-2.99-1.51c-1.43-1.08-2.66-2.55-4.42-3.05-1.08-.27-2.19-.13-3.26-.5s-1.8-1.22-2.8-1.69c-1.37-.61-2.95-.31-4.36-.05s-2.93.57-4.2.07c-.8-.29-1.34-.92-2.26-1.07-1.24-.29-2.47.36-3.56.81-1.32.48-2.69.9-4.13.96Z"/><path class="cls-13" d="M30.49 8.29c-.18-.38-.36-.76-.26-1.22.49.57 1.51.88 2.45.83 1.22-.08 2.43-.57 3.49-1.13.47-.26.94-.52 1.5-.56.95-.11 1.77.5 2.63.69.7.18 1.43.1 2.15.02 1.39-.11 2.83-.11 4.19-.43 1.08-.25 2.49-.61 3.3.14.36.3.63.79 1.08.79.16.02.34-.07.51-.1.96-.16 1.67.9 2.56 1.36.95.41 2.03.11 3.04.53.64.22 1.09.68 1.6 1.05.36.24.73.44 1.09.68.99.57 2.49.99 2.8 2.73.07.37.74-.23 1.16.02-.25.28-.5.57-.8.79l-3.14 3.08c-.19.19-.37.37-.55.51-.17.08-.38-.04-.31-.24.8-1.83 2.5-3.3 2.71-5.29.04-.36-.59-.68-.79-.34-.52.72-1.13 1.33-1.81 1.93-.06.05-.12.09-.22.03-.22-.02-.25-.28-.18-.43.18-.65.47-1.29.54-2.01.05-.46-.69-.8-1.05-.47-.24.18-.48.36-.8.28-.16-.07-.37-.19-.52-.26-.48-.15-.85.22-1.1.5-.64.81-1.23 1.68-1.87 2.54-.13.14-.34.07-.32-.09.06-1.13.68-2.2 1.01-3.3.17-.6-.71-1.16-1.29-.81-.12.09-.23.13-.35.22-.11.04-.28.02-.32-.09-.13-.32-.09-.73-.05-1.09.04-.41-.12-.99-.65-1.2-.58-.22-1.18.18-1.39.63-.21.44-.27.95-.58 1.28-.07.1-.19.19-.34.12-.05 0-.1-.06-.1-.11-.25-.28-.26-1.73-.51-1.97-.4-.4-.97.83-1.16 1.06 0 .05-.07.1-.07.1-.3.23-.7-.18-.72-.49-.02-.31.12-.61-.13-.89-.4-.4-1.21-.08-1.42.37-.14.24-.23.6-.56.61-.61.04-.51-.93-1.09-1.15-.27-.08-.61.04-.9.11-1.2.34-2.53-.06-3.82.11-.22.03-.45.11-.63.24-.29.18-.39.53-.36.79-.04.93.3 1.84.15 2.7-.03.26-.36.27-.51.1-.61-.99-.7-2.29-1.71-3.13-.05-.06-.1-.06-.16-.07-.43-.1-.26 1.37-.54 1.44-.22.03-.63-.32-1-.47-.37-.14-.89.06-1.2.34-.18.14-.37.32-.55.51-.24.18-.57.15-.72-.02-.6-.58-1.03-1.19-1.4-1.85Z"/><path class="cls-14" d="M55.91 6.6c-.89.06-1.97-.21-2.74-.7s-1.31-1.22-2.21-1.58c-.79-.34-1.68-.28-2.46-.21s-1.51.15-2.29.22c-.56.1-1.23.18-1.76-.03-.48-.15-.83-.5-.96-.88-.6-1.15.39-2.59 2.19-2.92s3.92.52 5.07 1.62c.55.52 1.04 1.14 1.7 1.63.36.3.83.5 1.31.71 1.79.81 3.72 1.32 5.64 1.99 1.55.53 3.18 1.27 4.16 2.46.34.45.61.99.51 1.4-.1.4-.57.71-1.11.55-.64-.17-1.14-.74-1.52-1.25-.78-1.01-1.72-1.99-2.97-2.69-.31-.19-.68-.38-1.06-.42-.55-.06-1 .05-1.5.1ZM34.3 4.15c.8-.28 1.69.18 2.53.06a.74.74 0 0 1 .33-.02c.1.06.1.11.09.22-.03.31-.28.54-.63.71-.35.17-.74.23-1.14.29s-.79.12-1.18.24c-.11.04-.29.12-.45.11-.28.02-.48-.21-.45-.41.09-.3.72-1.06.9-1.2ZM35.37 9.17c0 .05.04.11-.01.1q-.06.05-.11.04c-.32-.09-.46-.36-.79-.34-.16-.02-.34.07-.45.11-.4.16-.82.43-1.18.7-.13.14-.35.22-.51.15-.05 0-.05-.06-.1-.11l-.59-.68c-.25-.28-.49-.57-.51-.88.41.3.81.65 1.41.72.44.05.94-.05 1.3-.33.47-.31 1.13-.24 1.36.2.1.06.15.17.19.33ZM37.35 8.71c.05 0 .11-.04.22-.03.05 0 .05.06.05.06.15.17.12.43.1.63-.04.41.03.78.1 1.15-.11.04-.21-.07-.26-.13-.23-.44-.29-.91-.52-1.35-.22-.49-.68-.9-1.2-1.16.23-.08.5 0 .71.08.21.13.36.3.45.46.04.11.19.33.36.3ZM45.21 8.05c0 .05-.07.1-.18.14-.11.04-.17.03-.28.07-.05 0-.06.05-.11-.01-.05 0-.05-.06-.1-.06-.09-.16-.13-.32-.22-.49s-.19-.28-.4-.35c.17-.03.33-.02.5 0s.32.14.36.3c-.01.1-.02.2.08.27.11.01.33-.02.37.14ZM39.64 7.46c.81.14 1.64.17 2.48.06.05 0 .17-.03.23-.08-1.11.09-2.32.01-3.39-.31.09.16.36.24.68.33ZM47.73 8.21h.11c.1.07.04.17-.02.22-.12.09-.24.18-.31.28-.3-.34.15-.86-.2-1.21.21.13.36.24.39.45-.07.1-.08.25.03.26ZM52.53 8.26c.26.18.22.49.42.72.24.34.83.5 1.2.7l-1.16.03c-.11-.01-.21-.07-.2-.18.1-.45.04-.87-.25-1.27ZM53.95 13.57c-.03-.26.06-.56.14-.81.25-.75.73-1.11.74-2.25.25.23.27.55.14.79-.08.25-.27.49-.3.74l-.02.15c.04.11.15.12.2.23.04.11-.08.25-.2.29-.25.23-.5.52-.7.86ZM57.75 11.08c-.07.1-.19.24-.35.17-.16-.02-.26-.18-.3-.29a.667.667 0 0 1 .05-.46c.04.11.2.23.3.29.11.01.21.07.32.14.05 0-.01.1-.02.15ZM59.2 13.56a.25.25 0 0 1-.28.02c.08-.72.64-1.33.6-2.05.1.06.05.57-.02.67-.41 1.25.16.53.43.67-.14.29-.44.52-.74.7ZM61.91 12.51c.23.44.07.89.24 1.37.09.22.02.36.04.62.04.16-.09.3-.21.44-.62.66-1.19 1.32-1.82 2.03-.06.05-.07.1-.12.09s-.16-.02-.16-.07c.2-.34.45-.62.65-.96.59-.92 1.3-2.39 1.37-3.52ZM49.97 8.97c.05 0 .11.01.17-.03s.11-.04.23-.08c-.03.31-.18.65-.47.83l-.06.05c-.05 0-.1-.06-.15-.12-.21-.59-.2-1.26-.57-1.87.21.13.3.29.39.51s.24.39.33.55c.05.06.1.11.15.17Z"/><path class="cls-12" d="M127.17 16.38c-.73-.8-1.87-1.31-2.99-1.61-1.08-.28-2.19-.4-3.3-.46-.96 1.82-2.11 3.52-3.38 5.15-.05.09-.1.18-.16.28.09.26.19.52.35.71.07.08.21.04.28-.03.06-.13.14-.2.2-.33.33-.53 1.23-.32 1.32.3.15 1.14.07 2.34.45 3.41.04.15.24.14.28-.03.18-1.02.32-2.03.51-3 .09-.35.24-.82.67-.85.15 0 .36.05.51.06.28-.03.4-.28.52-.53.17-.43.87-.37 1 .07.21.69.22 1.38.33 2.05 0 .16.12.39.3.34.1.02.13-.04.16-.1.3-.79.56-1.56.69-2.41.03-.38.64-.3.75.04.58 1.92-.2 3.87-.14 5.84.01.21.22.25.33.11.09-.19.17-.43.24-.66.44-1.31.87-2.63 1.31-3.94.47-1.38.96-2.98-.25-4.38Z"/><path class="cls-11" d="M127.18 16.43c-.73-.8-1.87-1.31-2.99-1.61-1.1-.29-2.22-.4-3.33-.47-.41.77-.85 1.53-1.32 2.26.28-.09.57-.17.86-.21 1.57-.16 3.08.78 4.61 1.28.94.36 2.01.46 2.9.35-.07-.57-.28-1.09-.73-1.6Z"/><path class="cls-13" d="M126.74 20.16c-.9-1.5-2.23-1.36-3.22-1.55-.37-.1-.73-.15-1.11-.25-.54-.16-1.06-.43-1.65-.41-.94-.04-1.67.61-2.57.57-.23.31-.46.63-.7.93-.07.13-.15.26-.22.39.08.23.18.46.33.63.07.08.21.04.28-.03.06-.13.14-.2.2-.33.33-.53 1.23-.32 1.32.3.15 1.14.07 2.34.45 3.41.04.15.24.14.28-.03.18-1.02.32-2.03.51-3 .09-.35.24-.82.67-.85.15 0 .36.05.51.06.28-.03.4-.28.52-.54.17-.43.87-.37 1 .07.21.69.22 1.38.33 2.05 0 .16.12.39.3.34.1.02.13-.04.16-.1.3-.79.56-1.56.69-2.41.03-.38.64-.3.75.04.58 1.92-.2 3.87-.14 5.84.01.21.22.25.33.11.09-.19.17-.43.24-.66.44-1.31.87-2.63 1.31-3.94.15-.31.24-.66.33-1.01-.42-.09-.72.7-.91.38Z"/><path class="cls-14" d="M125.7 15.43c-1.21-.76-2.77-.88-4.18-.83-.27 0-.55.02-.82.04-.12.22-.25.45-.38.67.22 0 .44.01.64.06 1.24.21 2.35.79 3.34 1.46.49.33 1.09.69 1.66.62.48-.04.73-.49.66-.9-.07-.41-.49-.82-.93-1.11ZM119.93 23.09c-.12-.23-.16-.54-.19-.8-.09-.78.15-1.28-.27-2.33.28.13.42.41.4.68.03.26-.03.55.04.79l.04.15c.07.08.16.06.24.14.07.08.03.26-.05.34-.11.3-.2.65-.23 1.03ZM121.97 19.46c-.02.11-.06.29-.21.28-.13.04-.27-.08-.34-.16a.758.758 0 0 1-.13-.44c.07.08.24.14.34.16.09-.03.19 0 .3.02.04-.01.03.1.04.15ZM124.03 21.25c-.03.06-.1.14-.21.12-.21-.69 0-1.45-.3-2.11.1.02.25.51.24.63.15 1.3.33.44.58.47 0 .32-.15.64-.32.9ZM125.76 19.33c.34.32.39.79.7 1.18.15.17.15.33.27.56.09.13.04.31 0 .48-.24.82-.44 1.64-.66 2.51-.03.06-.02.11-.06.13s-.13.04-.15 0c.03-.38.12-.73.15-1.12.12-1.06.12-2.67-.25-3.74Z"/><path class="cls-12" d="M17.79 38.03c.17.3.6.02.7-.28.11-.29.08-.61.35-.82.43-.28.96.25 1.01.73.04.27.01.63.27.73.47.2.66-.76 1.18-.81.23 0 .47.2.67.34.33.25.7.4 1.1.51.94-.52 1.94-.92 2.97-1.15l.24-.84v-.36c-.03-.23-.06-.46-.08-.69-.16-.07-.33-.15-.49-.23-.33-.17-.69-.45-.91-.76-.51-.68-.36-1.43-.57-2.21-.29-1.05-1.35-2-2.65-2.42s-2.71-.28-3.9.16c-.75.27-1.38.67-2.09.99-2.62 1.1-5.75.89-8.6 1.99-1.05.42-2.1 1.04-2.73 1.91-1.04 1.52-.43 3.06.13 4.38l1.59 3.78c.09.23.18.46.29.63.11.13.31.06.31-.15-.11-1.96-1.03-3.82-.63-5.79.07-.35.65-.5.71-.12.2.83.51 1.57.87 2.32.03.06.07.12.17.09.18.04.27-.21.26-.37.04-.67 0-1.36.14-2.07.09-.45.76-.58.96-.17.14.24.27.47.55.48.14-.02.34-.09.48-.11.42-.02.6.44.72.77.27.95.49 1.93.75 2.93.06.17.25.15.28 0 .27-1.1.09-2.29.14-3.43.03-.62.88-.92 1.24-.43.07.12.15.19.21.31.08.07.21.09.28 0 .19-.28.27-.68.35-1.03.08-.4.37-.92.84-.98.52-.05.87.49.91.97s-.06.98.09 1.38c.02.11.09.23.24.2.04 0 .1-.03.11-.08.27-.21.69-1.59.95-1.75.43-.28.53 1.05.61 1.33-.01.05.02.11.02.11Z"/><path class="cls-11" d="M22.77 35.95c.7-.07 1.3-.52 2.07-.42.54.03 1 .29 1.42.63v-.06c-.03-.23-.06-.46-.08-.69-.16-.08-.34-.14-.49-.23-.33-.17-.69-.45-.91-.76-.29-.37-.39-.81-.44-1.24-.15-.4-.16-.82-.22-1.2-.36-.96-1.34-1.79-2.56-2.14-1.3-.42-2.71-.28-3.9.16-.75.27-1.38.67-2.09.99-2.62 1.1-5.75.89-8.6 1.99-1.05.42-2.1 1.04-2.73 1.91-.39.55-.54 1.1-.57 1.67.87.02 1.88-.2 2.76-.65 1.42-.66 2.79-1.74 4.31-1.75.92.03 1.75.46 2.69.38.94-.07 1.75-.7 2.66-.88 1.24-.22 2.39.48 3.42 1.11 1.03.63 2.13 1.32 3.26 1.18Z"/><path class="cls-13" d="M17.86 37.94c-.01.05.02.11.02.11.17.3.6.02.7-.28s.08-.61.35-.82c.43-.28.96.25 1.01.73.04.27.01.63.27.73.47.2.66-.76 1.18-.81.23 0 .47.2.67.34.31.23.65.38 1.02.49.32-.18.65-.34.98-.49-.5-.07-.97-.29-1.44-.52-1.06-.47-2.18-.86-3.15-1.52-.77-.52-1.78-1.25-2.62-.74-.36.19-.72.59-1.06.47-.13-.03-.25-.15-.37-.23-.7-.4-1.56.42-2.38.62-.86.14-1.62-.43-2.52-.3-.56.04-1.04.37-1.54.58-.35.14-.69.23-1.04.37-.93.28-2.22.29-2.96 1.87-.16.33-.51-.42-.91-.29.12.34.23.68.4.97L6.06 43c.09.23.18.46.29.63.11.13.31.06.31-.15-.11-1.96-1.03-3.82-.63-5.79.07-.35.65-.5.71-.12.2.83.51 1.57.87 2.32.03.06.07.12.17.09.18.04.27-.21.26-.37.04-.67 0-1.36.14-2.07.09-.45.76-.58.96-.17.14.24.27.47.55.48.14-.02.34-.09.48-.11.42-.02.6.44.72.77.27.95.49 1.93.75 2.93.06.17.25.15.28 0 .27-1.1.09-2.29.14-3.43.03-.62.88-.92 1.24-.43.07.12.15.19.21.31.08.07.21.09.28 0 .19-.28.27-.68.35-1.03.08-.4.37-.92.84-.98.52-.05.87.49.91.97s-.06.98.09 1.38c.02.11.09.23.24.2.04 0 .1-.03.11-.08.27-.21.69-1.59.95-1.75.43-.28.53 1.05.61 1.33Z"/><path class="cls-14" d="M12.2 33.55c.68.29 1.59.32 2.34.05s1.36-.83 2.17-.93c.71-.12 1.39.18 1.98.45s1.13.54 1.72.82c.41.24.91.5 1.39.44.42-.02.79-.26.99-.59.79-.94.43-2.59-.89-3.37s-3.21-.54-4.42.21c-.58.36-1.13.82-1.79 1.11-.36.19-.79.26-1.22.33-1.63.3-3.28.28-4.97.41-1.35.09-2.84.37-3.94 1.25-.39.34-.76.79-.79 1.2-.04.41.25.84.71.82.55 0 1.1-.41 1.54-.79.89-.76 1.9-1.45 3.08-1.79.3-.1.64-.19.95-.12.44.09.77.31 1.14.49ZM20.15 37.77c-.01.05.02.11.1.18.08.07.12.08.2.15.04 0 .03.06.09.02.04 0 .05-.04.1-.03.12-.13.19-.28.31-.41s.23-.22.42-.23c-.12-.08-.26-.1-.39-.13s-.29.05-.36.19c-.02.1-.04.2-.14.23-.09-.02-.26-.1-.33.04ZM18.13 37.26l-.09-.02c-.1.03-.07.14-.04.2.07.12.14.24.16.35.33-.25.13-.86.5-1.1-.2.07-.35.14-.44.33.02.11 0 .26-.09.24ZM14.37 36.04c-.25.11-.31.41-.53.57-.28.26-.79.26-1.13.35.3.11.6.23.9.34.09.02.19-.01.21-.12.05-.46.22-.85.55-1.15ZM11.76 40.75c.09-.24.11-.55.12-.81.02-.78-.25-1.26.06-2.35-.26.16-.37.45-.33.72 0 .26.08.54.03.79l-.03.15c-.06.09-.15.07-.22.17-.06.09 0 .26.07.33.13.29.24.63.3 1ZM9.5 37.36c.02.11.08.28.23.25.13.03.25-.11.32-.2.07-.14.11-.29.09-.45-.06.09-.22.17-.32.2-.09-.02-.19.01-.29.05-.04 0-.02.1-.03.15ZM7.67 39.35c.03.06.11.13.21.09.14-.7-.12-1.44.11-2.13-.1.03-.2.54-.18.65-.03 1.3-.28.47-.52.52.03.32.2.62.38.86ZM5.85 37.62c-.3.36-.31.83-.57 1.25-.13.18-.12.34-.21.59-.07.14-.02.31.04.48.3.79.56 1.58.85 2.42.03.06.02.11.07.12s.13.03.14-.02c-.06-.38-.18-.72-.24-1.1-.21-1.04-.34-2.64-.08-3.74ZM16.17 37.39s-.09-.02-.12-.08-.08-.07-.16-.14c-.06.3-.04.67.14.92l.03.06s.1-.03.15-.07c.33-.51.51-1.15.97-1.64-.2.07-.32.2-.45.38s-.29.31-.41.44c-.05.04-.11.08-.16.12Z"/><path class="cls-12" d="M233.27 43.23c-1.16-.56-2.78-.69-4.32-.6-2.09.13-4.16.63-6.18 1.11-.97 1.98-2.03 3.85-3.17 5.64.01 0 .02-.01.03-.02.65-.17 1.22.21 1.48.58.22.32.48.68.84.87.12.06.28-.03.36-.14.05-.15.12-.26.17-.41.3-.67 1.52-.77 1.8-.16.48 1.12.69 2.39 1.45 3.37.1.14.35.06.36-.14-.02-1.12-.1-2.21-.1-3.29.03-.39.1-.94.66-1.12.2-.05.48-.07.68-.12.36-.14.46-.44.55-.74.11-.5 1.04-.69 1.33-.29.45.64.64 1.35.95 2 .04.17.26.36.48.24.14-.01.17-.09.19-.17.19-.92.33-1.82.29-2.74-.06-.41.76-.54.99-.23 1.25 1.77.73 4.08 1.31 6.09.07.21.36.18.46 0 .07-.23.11-.5.14-.77.23-1.51.47-3.03.7-4.54.26-1.59.5-3.42-1.44-4.44Z"/><path class="cls-11" d="M233.31 43.28c-1.16-.56-2.78-.69-4.32-.6-2.11.13-4.2.64-6.24 1.13-.61 1.23-1.25 2.42-1.92 3.58.07-.02.14-.02.21-.04 1.26-.38 2.21-1.21 3.41-1.67 2.01-.72 4.23-.29 6.35-.32 1.32.03 2.74-.24 3.88-.67-.24-.56-.65-1.03-1.37-1.4Z"/><path class="cls-13" d="M233.69 47.29c-1.55-1.23-3.26-.61-4.6-.45-.51.03-1 .1-1.51.13-.74.03-1.5-.06-2.26.16-1.24.3-2.03 1.24-3.22 1.51-.66.11-1.41.03-2.07.07-.15.24-.31.47-.46.71.63-.13 1.17.23 1.42.58.22.32.48.68.84.87.12.06.28-.03.36-.14.05-.15.12-.26.17-.41.3-.67 1.52-.77 1.8-.16.48 1.12.69 2.39 1.45 3.37.1.14.35.06.36-.14-.02-1.12-.1-2.21-.1-3.29.03-.39.1-.94.66-1.12.2-.05.48-.07.68-.12.36-.14.46-.44.55-.74.11-.5 1.04-.69 1.33-.29.45.64.64 1.35.95 2 .04.17.26.36.48.24.14-.01.17-.09.19-.17.19-.92.33-1.82.29-2.74-.06-.41.76-.54.99-.23 1.25 1.77.73 4.08 1.31 6.09.07.21.36.18.46 0 .07-.23.11-.5.14-.77.23-1.51.47-3.03.7-4.54.12-.38.14-.77.17-1.17-.57.06-.76.98-1.1.72Z"/><path class="cls-14" d="M232.61 43.6c-.2-.39-.85-.67-1.5-.82-1.78-.35-3.84.08-5.66.64-1.01.3-2 .62-2.98.94-.33.66-.67 1.31-1.02 1.94.31-.16.6-.33.85-.52.43-.36.78-.74 1.33-1.04.39-.21.87-.29 1.3-.33 1.68-.22 3.27-.02 4.73.31.73.17 1.6.32 2.33.05.62-.21.83-.77.63-1.17ZM220.34 49.3c.37-.01.56.26.91.32.47.12 1.14-.12 1.62-.19-.35.26-.71.51-1.06.77-.11.06-.25.08-.32-.02-.23-.44-.6-.74-1.16-.88ZM225.53 52.76c-.22-.2-.35-.5-.46-.76-.31-.77-.13-1.38-.94-2.32.4.03.65.27.7.56.1.26.1.58.26.8l.1.14c.12.06.23 0 .35.06.12.06.1.26.03.36-.06.35-.09.74-.03 1.15ZM227.27 48.28c0 .12 0 .32-.2.36-.17.09-.37.01-.49-.05a.699.699 0 0 1-.29-.41c.12.06.35.06.49.05.11-.06.25-.08.4-.09.06-.03.06.09.1.14ZM230.42 49.39c-.02.08-.1.18-.24.2-.45-.64-.37-1.5-.93-2.08.14-.01.46.44.47.56.52 1.29.54.33.88.27.08.33-.03.71-.18 1.04ZM232.19 46.79c.53.21.71.68 1.22.97.24.12.28.29.49.49.15.11.14.3.12.5-.1.94-.15 1.85-.22 2.83-.02.08 0 .12-.05.15s-.17.09-.2.05c-.06-.41-.03-.8-.09-1.21-.11-1.14-.52-2.8-1.28-3.77Z"/><path class="cls-12" d="M189.45 24.54c.15.34.31.71.46 1.09.17.04.34.09.51.14v-.1c.07-.25.24-.11.34.12.57-.2 1.82-.86 2.72-1.13.05-.09.11-.19.17-.28.42-.69.85-1.37 1.29-2.05-.01-.21-.03-.42-.04-.64.01-.24.03-1.04-.72-1.53-.49-.3-1.19-.06-1.77-.19-.64-.16-1.03-.73-1.65-.84s-1.28.25-1.64.75c-.36.5-.54 1.12-.68 1.69-.29 1.13.53 1.98.65 2.17.14.28.28.52.38.81Z"/><path class="cls-11" d="M193.98 20.63c.15-.28-.07-.63-.42-.65-.39 0-.86.06-1.22 0-.64-.16-1.03-.73-1.65-.84-.62-.11-1.28.25-1.64.75s-.54 1.12-.68 1.69c-.23.88.2 1.57.46 1.91.1.15.32.22.55.19.22-.07.39-.13.52-.32.16-.24.2-.54.38-.74.16-.24.64-.55.94-.37.17.08.23.25.39.29.22.07.57-.05.77-.17.51-.22.78-.69 1.13-1.09.16-.1.36-.36.46-.63Z"/><path class="cls-14" d="M191.06 20.18c-.29-.13-.57-.23-.87-.26-.2-.02-.45-.03-.67.04-.09.03-.13.04-.16.1s-.03.06-.07.07c-.28.33-.54.7-.64 1.11-.1.27-.16.81.14.98.25.15.58-.01.71-.2.19-.3.28-.61.62-.73s.59.03.88.02c.35.02.7-.24.62-.59-.06-.31-.35-.44-.58-.55Z"/></svg>