<svg xmlns="http://www.w3.org/2000/svg" viewBox="0 0 114 20" width="114" height="20">
	<style>
		tspan { white-space:pre }
		.shp0 { fill: #eb9a11 } 
	</style>
	<g id="Layer">
		<g id="Layer">
			<g id="Layer">
				<g id="Layer copy 4">
					<path id="Layer copy" fill-rule="evenodd" class="shp0" d="M-49.59 -78.73L-53.29 -75.33L-52.59 -70.13C-52.49 -69.93 -52.59 -69.53 -52.79 -69.23C-53.19 -68.53 -53.99 -68.43 -54.69 -68.83L-58.49 -71.33L-62.29 -68.73C-62.79 -68.33 -63.29 -68.33 -63.79 -68.63C-64.29 -68.93 -64.59 -69.33 -64.49 -69.93L-63.79 -75.13L-67.49 -78.43C-67.79 -78.63 -67.99 -78.93 -67.99 -79.23C-68.09 -80.03 -67.49 -80.63 -66.79 -80.83L-61.79 -81.53L-59.79 -86.23C-59.79 -86.53 -59.49 -86.83 -59.09 -86.93C-58.39 -87.13 -57.69 -86.93 -57.39 -86.23L-55.39 -81.63L-50.39 -81.03C-50.09 -80.93 -49.79 -80.83 -49.59 -80.53C-49.09 -79.93 -49.19 -79.13 -49.59 -78.73ZM-58.79 -72.63C-58.69 -72.83 -58.29 -72.83 -58.09 -72.63L-53.99 -69.83L-54.79 -75.33C-54.89 -75.53 -54.79 -75.73 -54.59 -75.93L-50.39 -79.53L-55.69 -80.23C-55.99 -80.23 -56.19 -80.43 -56.29 -80.63L-58.49 -85.63L-58.79 -72.63Z" />
					<g id="Layer">
						<g id="Layer">
						</g>
					</g>
				</g>
			</g>
		</g>
	</g>
	<g id="Layer">
		<g id="Layer">
			<g id="Layer">
			</g>
		</g>
	</g>
	<g id="Layer">
		<g id="Layer">
			<g id="Layer">
				<path id="Layer" fill-rule="evenodd" class="shp0" d="M18.8 7.1C18.6 6.8 18.3 6.7 18 6.6L18 6.6L13 6L11 1.4C10.7 0.7 10 0.5 9.3 0.7C9 0.9 8.7 1.2 8.6 1.5L6.6 6.2L1.6 6.9C1 7.1 0.4 7.8 0.5 8.5C0.5 8.8 0.7 9.1 1 9.3L4.7 12.6L4 17.8C3.9 18.4 4.2 18.8 4.7 19.1C5.2 19.4 5.7 19.4 6.2 19L10 16.4L13.8 18.9C14.5 19.3 15.3 19.2 15.7 18.5C15.9 18.2 16 17.8 15.9 17.6L15.2 12.4L18.9 9C19.3 8.5 19.4 7.7 18.8 7.1Z" />
				<path id="Layer copy 6" fill-rule="evenodd" class="shp0" d="M112.8 7.1C112.6 6.8 112.3 6.7 112 6.6L112 6.6L107 6L105 1.4C104.7 0.7 104 0.5 103.3 0.7C103 0.9 102.7 1.2 102.6 1.5L100.6 6.2L95.6 6.9C95 7.1 94.4 7.8 94.5 8.5C94.5 8.8 94.7 9.1 95 9.3L98.7 12.6L98 17.8C97.9 18.4 98.2 18.8 98.7 19.1C99.2 19.4 99.7 19.4 100.2 19L104 16.4L107.8 18.9C108.5 19.3 109.3 19.2 109.7 18.5C109.9 18.2 110 17.8 109.9 17.6L109.2 12.4L112.9 9C113.3 8.5 113.4 7.7 112.8 7.1Z" />
				<path id="Layer copy 5" fill-rule="evenodd" class="shp0" d="M90.8 7.1C90.6 6.8 90.3 6.7 90 6.6L90 6.6L85 6L83 1.4C82.7 0.7 82 0.5 81.3 0.7C81 0.9 80.7 1.2 80.6 1.5L78.6 6.2L73.6 6.9C73 7.1 72.4 7.8 72.5 8.5C72.5 8.8 72.7 9.1 73 9.3L76.7 12.6L76 17.8C75.9 18.4 76.2 18.8 76.7 19.1C77.2 19.4 77.7 19.4 78.2 19L82 16.4L85.8 18.9C86.5 19.3 87.3 19.2 87.7 18.5C87.9 18.2 88 17.8 87.9 17.6L87.2 12.4L90.9 9C91.3 8.5 91.4 7.7 90.8 7.1Z" />
				<path id="Layer copy 3" fill-rule="evenodd" class="shp0" d="M66.8 7.1C66.6 6.8 66.3 6.7 66 6.6L66 6.6L61 6L59 1.4C58.7 0.7 58 0.5 57.3 0.7C57 0.9 56.7 1.2 56.6 1.5L54.6 6.2L49.6 6.9C49 7.1 48.4 7.8 48.5 8.5C48.5 8.8 48.7 9.1 49 9.3L52.7 12.6L52 17.8C51.9 18.4 52.2 18.8 52.7 19.1C53.2 19.4 53.7 19.4 54.2 19L58 16.4L61.8 18.9C62.5 19.3 63.3 19.2 63.7 18.5C63.9 18.2 64 17.8 63.9 17.6L63.2 12.4L66.9 9C67.3 8.5 67.4 7.7 66.8 7.1Z" />
				<path id="Layer copy 2" fill-rule="evenodd" class="shp0" d="M42.8 7.1C42.6 6.8 42.3 6.7 42 6.6L42 6.6L37 6L35 1.4C34.7 0.7 34 0.5 33.3 0.7C33 0.9 32.7 1.2 32.6 1.5L30.6 6.2L25.6 6.9C25 7.1 24.4 7.8 24.5 8.5C24.5 8.8 24.7 9.1 25 9.3L28.7 12.6L28 17.8C27.9 18.4 28.2 18.8 28.7 19.1C29.2 19.4 29.7 19.4 30.2 19L34 16.4L37.8 18.9C38.5 19.3 39.3 19.2 39.7 18.5C39.9 18.2 40 17.8 39.9 17.6L39.2 12.4L42.9 9C43.3 8.5 43.4 7.7 42.8 7.1Z" />
			</g>
		</g>
	</g>
	<g id="Layer">
		<g id="Layer">
			<g id="Layer">
			</g>
		</g>
	</g>
</svg>